<?xml version="1.0" encoding="UTF-8" standalone="no"?>
<svg
   xmlns:dc="http://purl.org/dc/elements/1.1/"
   xmlns:cc="http://creativecommons.org/ns#"
   xmlns:rdf="http://www.w3.org/1999/02/22-rdf-syntax-ns#"
   xmlns:svg="http://www.w3.org/2000/svg"
   xmlns="http://www.w3.org/2000/svg"
   xmlns:sodipodi="http://sodipodi.sourceforge.net/DTD/sodipodi-0.dtd"
   xmlns:inkscape="http://www.inkscape.org/namespaces/inkscape"
   width="921.25983"
   height="1257.874"
   id="svg3004"
   version="1.1"
   inkscape:version="0.48.3.1 r9886"
   sodipodi:docname="case-wing.svg"
   inkscape:export-filename="/home/phil/src/atreus/case-wing.png"
   inkscape:export-xdpi="90"
   inkscape:export-ydpi="90">
  <metadata
     id="metadata4705">
    <rdf:RDF>
      <cc:Work
         rdf:about="">
        <dc:format>image/svg+xml</dc:format>
        <dc:type
           rdf:resource="http://purl.org/dc/dcmitype/StillImage" />
        <dc:title></dc:title>
      </cc:Work>
    </rdf:RDF>
  </metadata>
  <sodipodi:namedview
     pagecolor="#ffffff"
     bordercolor="#666666"
     borderopacity="1"
     objecttolerance="10"
     gridtolerance="10"
     guidetolerance="10"
     inkscape:pageopacity="0"
     inkscape:pageshadow="2"
     inkscape:window-width="1918"
     inkscape:window-height="1198"
     id="namedview4703"
     showgrid="false"
     inkscape:document-units="mm"
     units="mm"
     inkscape:zoom="1"
     inkscape:cx="462.29334"
     inkscape:cy="660.15761"
     inkscape:window-x="0"
     inkscape:window-y="0"
     inkscape:window-maximized="0"
     inkscape:current-layer="g5832"
     showguides="true"
     inkscape:guide-bbox="true" />
  <desc
     id="desc3006">/home/phil/ErgoDOX Case Layer 3 Plate - Left.dxf - scale = 1.000000</desc>
  <defs
     id="defs3008">
    <marker
       refY="0"
       refX="0"
       style="overflow:visible"
       id="DistanceX"
       orient="auto">
      <path
         style="stroke:#000000;stroke-width:0.5"
         d="M 3,-3 -3,3 M 0,-5 0,5"
         id="path3011"
         inkscape:connector-curvature="0" />
    </marker>
    <pattern
       height="8"
       width="8"
       patternUnits="userSpaceOnUse"
       y="0"
       x="0"
       id="Hatch">
      <path
         linecap="square"
         stroke="#000000"
         stroke-width="0.25"
         d="M8 4 l-4,4"
         id="path3014" />
      <path
         linecap="square"
         stroke="#000000"
         stroke-width="0.25"
         d="M6 2 l-4,4"
         id="path3016" />
      <path
         linecap="square"
         stroke="#000000"
         stroke-width="0.25"
         d="M4 0 l-4,4"
         id="path3018" />
    </pattern>
    <symbol
       id="*Model_Space" />
    <symbol
       id="*Paper_Space" />
    <symbol
       id="*Paper_Space0" />
  </defs>
  <g
     inkscape:label="Base"
     inkscape:groupmode="layer"
     id="g3023"
     transform="translate(0,205.51205)"
     style="display:none">
    <g
       id="g3317"
       transform="matrix(0.98480775,0.17364818,-0.17364818,0.98480775,155.10068,-53.3287)">
      <path
         inkscape:connector-curvature="0"
         d="m 393.74701,754.32463 0,-3.474 m 2.88001,3.474 -2.88001,0 m 2.88001,12.402 0,-12.402 m -2.88001,12.402 2.88001,0 m -2.88001,17.748 0,-17.748 m 2.88001,17.748 -2.88001,0 m 2.88001,12.402 0,-12.402 m -2.88001,12.402 2.88001,0 m -2.88001,3.474 0,-3.474 m -49.50013,3.474 49.50013,0 m -49.50013,-3.474 0,3.474 m -2.88001,-3.474 2.88001,0 m -2.88001,-12.402 0,12.402 m 2.88001,-12.402 -2.88001,0 m 2.88001,-17.748 0,17.748 m -2.88001,-17.748 2.88001,0 m -2.88001,-12.402 0,12.402 m 2.88001,-12.402 -2.88001,0 m 2.88001,-3.474 0,3.474 m 49.50013,-3.474 -49.50013,0"
         style="fill:none;stroke:#ff0000;stroke-width:1.00000131"
         id="path3223" />
      <path
         inkscape:connector-curvature="0"
         d="m 191.24646,934.96987 0,-3.474 m 2.88001,3.474 -2.88001,0 m 2.88001,12.402 0,-12.402 m -2.88001,12.402 2.88001,0 m -2.88001,17.748 0,-17.748 m 2.88001,17.748 -2.88001,0 m 2.88001,12.402 0,-12.402 m -2.88001,12.402 2.88001,0 m -2.88001,3.474 0,-3.474 m -49.50013,3.474 49.50013,0 m -49.50013,-3.474 0,3.474 m -2.88001,-3.474 2.88001,0 m -2.88001,-12.402 0,12.402 m 2.88001,-12.402 -2.88001,0 m 2.88001,-17.748 0,17.748 m -2.88001,-17.748 2.88001,0 m -2.88001,-12.402 0,12.402 m 2.88001,-12.402 -2.88001,0 m 2.88001,-3.474 0,3.474 m 49.50013,-3.474 -49.50013,0"
         style="fill:none;stroke:#ff0000;stroke-width:1.00000131"
         id="path3583" />
      <path
         inkscape:connector-curvature="0"
         d="m 123.74628,743.91896 0,-3.474 m 2.88001,3.474 -2.88001,0 m 2.88001,12.402 0,-12.402 m -2.88001,12.402 2.88001,0 m -2.88001,17.748 0,-17.748 m 2.88001,17.748 -2.88001,0 m 2.88001,12.402 0,-12.402 m -2.88001,12.402 2.88001,0 m -2.88001,3.474 0,-3.474 m -49.50013,3.474 49.50013,0 m -49.50013,-3.474 0,3.474 m -2.880008,-3.474 2.880008,0 m -2.880008,-12.402 0,12.402 m 2.880008,-12.402 -2.880008,0 m 2.880008,-17.748 0,17.748 m -2.880008,-17.748 2.880008,0 m -2.880008,-12.402 0,12.402 m 2.880008,-12.402 -2.880008,0 m 2.880008,-3.474 0,3.474 m 49.50013,-3.474 -49.50013,0"
         style="fill:none;stroke:#ff0000;stroke-width:1.00000131"
         id="path3623" />
      <path
         inkscape:connector-curvature="0"
         d="m 258.74665,714.75333 0,-3.474 m 2.88,3.474 -2.88,0 m 2.88,12.402 0,-12.402 m -2.88,12.402 2.88,0 m -2.88,17.748 0,-17.748 m 2.88,17.748 -2.88,0 m 2.88,12.402 0,-12.402 m -2.88,12.402 2.88,0 m -2.88,3.474 0,-3.474 m -49.50014,3.474 49.50014,0 m -49.50014,-3.474 0,3.474 m -2.88001,-3.474 2.88001,0 m -2.88001,-12.402 0,12.402 m 2.88001,-12.402 -2.88001,0 m 2.88001,-17.748 0,17.748 m -2.88001,-17.748 2.88001,0 m -2.88001,-12.402 0,12.402 m 2.88001,-12.402 -2.88001,0 m 2.88001,-3.474 0,3.474 m 49.50014,-3.474 -49.50014,0"
         style="fill:none;stroke:#ff0000;stroke-width:1.00000131"
         id="path3663" />
      <path
         inkscape:connector-curvature="0"
         d="m 326.24683,732.46987 0,-3.474 m 2.88001,3.474 -2.88001,0 m 2.88001,12.402 0,-12.402 m -2.88001,12.402 2.88001,0 m -2.88001,17.748 0,-17.748 m 2.88001,17.748 -2.88001,0 m 2.88001,12.402 0,-12.402 m -2.88001,12.402 2.88001,0 m -2.88001,3.474 0,-3.474 m -49.50014,3.474 49.50014,0 m -49.50014,-3.474 0,3.474 m -2.88,-3.474 2.88,0 m -2.88,-12.402 0,12.402 m 2.88,-12.402 -2.88,0 m 2.88,-17.748 0,17.748 m -2.88,-17.748 2.88,0 m -2.88,-12.402 0,12.402 m 2.88,-12.402 -2.88,0 m 2.88,-3.474 0,3.474 m 49.50014,-3.474 -49.50014,0"
         style="fill:none;stroke:#ff0000;stroke-width:1.00000131"
         id="path3703" />
      <path
         inkscape:connector-curvature="0"
         d="m 123.74628,811.41896 0,-3.474 m 2.88001,3.474 -2.88001,0 m 2.88001,12.402 0,-12.402 m -2.88001,12.402 2.88001,0 m -2.88001,17.748 0,-17.748 m 2.88001,17.748 -2.88001,0 m 2.88001,12.402 0,-12.402 m -2.88001,12.402 2.88001,0 m -2.88001,3.474 0,-3.474 m -49.50013,3.474 49.50013,0 m -49.50013,-3.474 0,3.474 m -2.880008,-3.474 2.880008,0 m -2.880008,-12.402 0,12.402 m 2.880008,-12.402 -2.880008,0 m 2.880008,-17.748 0,17.748 m -2.880008,-17.748 2.880008,0 m -2.880008,-12.402 0,12.402 m 2.880008,-12.402 -2.880008,0 m 2.880008,-3.474 0,3.474 m 49.50013,-3.474 -49.50013,0"
         style="fill:none;stroke:#ff0000;stroke-width:1.00000131"
         id="path3743" />
      <path
         inkscape:connector-curvature="0"
         d="m 191.24646,799.96987 0,-3.474 m 2.88001,3.474 -2.88001,0 m 2.88001,12.402 0,-12.402 m -2.88001,12.402 2.88001,0 m -2.88001,17.748 0,-17.748 m 2.88001,17.748 -2.88001,0 m 2.88001,12.402 0,-12.402 m -2.88001,12.402 2.88001,0 m -2.88001,3.474 0,-3.474 m -49.50013,3.474 49.50013,0 m -49.50013,-3.474 0,3.474 m -2.88001,-3.474 2.88001,0 m -2.88001,-12.402 0,12.402 m 2.88001,-12.402 -2.88001,0 m 2.88001,-17.748 0,17.748 m -2.88001,-17.748 2.88001,0 m -2.88001,-12.402 0,12.402 m 2.88001,-12.402 -2.88001,0 m 2.88001,-3.474 0,3.474 m 49.50013,-3.474 -49.50013,0"
         style="fill:none;stroke:#ff0000;stroke-width:1.00000131"
         id="path3783" />
      <path
         inkscape:connector-curvature="0"
         d="m 258.74665,782.25333 0,-3.474 m 2.88,3.474 -2.88,0 m 2.88,12.402 0,-12.402 m -2.88,12.402 2.88,0 m -2.88,17.748 0,-17.748 m 2.88,17.748 -2.88,0 m 2.88,12.402 0,-12.402 m -2.88,12.402 2.88,0 m -2.88,3.474 0,-3.474 m -49.50014,3.474 49.50014,0 m -49.50014,-3.474 0,3.474 m -2.88001,-3.474 2.88001,0 m -2.88001,-12.402 0,12.402 m 2.88001,-12.402 -2.88001,0 m 2.88001,-17.748 0,17.748 m -2.88001,-17.748 2.88001,0 m -2.88001,-12.402 0,12.402 m 2.88001,-12.402 -2.88001,0 m 2.88001,-3.474 0,3.474 m 49.50014,-3.474 -49.50014,0"
         style="fill:none;stroke:#ff0000;stroke-width:1.00000131"
         id="path3823" />
      <path
         inkscape:connector-curvature="0"
         d="m 326.24683,799.96987 0,-3.474 m 2.88001,3.474 -2.88001,0 m 2.88001,12.402 0,-12.402 m -2.88001,12.402 2.88001,0 m -2.88001,17.748 0,-17.748 m 2.88001,17.748 -2.88001,0 m 2.88001,12.402 0,-12.402 m -2.88001,12.402 2.88001,0 m -2.88001,3.474 0,-3.474 m -49.50014,3.474 49.50014,0 m -49.50014,-3.474 0,3.474 m -2.88,-3.474 2.88,0 m -2.88,-12.402 0,12.402 m 2.88,-12.402 -2.88,0 m 2.88,-17.748 0,17.748 m -2.88,-17.748 2.88,0 m -2.88,-12.402 0,12.402 m 2.88,-12.402 -2.88,0 m 2.88,-3.474 0,3.474 m 49.50014,-3.474 -49.50014,0"
         style="fill:none;stroke:#ff0000;stroke-width:1.00000131"
         id="path3863" />
      <path
         inkscape:connector-curvature="0"
         d="m 393.74701,821.82463 0,-3.474 m 2.88001,3.474 -2.88001,0 m 2.88001,12.402 0,-12.402 m -2.88001,12.402 2.88001,0 m -2.88001,17.748 0,-17.748 m 2.88001,17.748 -2.88001,0 m 2.88001,12.402 0,-12.402 m -2.88001,12.402 2.88001,0 m -2.88001,3.474 0,-3.474 m -49.50013,3.474 49.50013,0 m -49.50013,-3.474 0,3.474 m -2.88001,-3.474 2.88001,0 m -2.88001,-12.402 0,12.402 m 2.88001,-12.402 -2.88001,0 m 2.88001,-17.748 0,17.748 m -2.88001,-17.748 2.88001,0 m -2.88001,-12.402 0,12.402 m 2.88001,-12.402 -2.88001,0 m 2.88001,-3.474 0,3.474 m 49.50013,-3.474 -49.50013,0"
         style="fill:none;stroke:#ff0000;stroke-width:1.00000131"
         id="path3903" />
      <path
         inkscape:connector-curvature="0"
         d="m 123.74628,878.91896 0,-3.474 m 2.88001,3.474 -2.88001,0 m 2.88001,12.402 0,-12.402 m -2.88001,12.402 2.88001,0 m -2.88001,17.748 0,-17.748 m 2.88001,17.748 -2.88001,0 m 2.88001,12.402 0,-12.402 m -2.88001,12.402 2.88001,0 m -2.88001,3.474 0,-3.474 m -49.50013,3.474 49.50013,0 m -49.50013,-3.474 0,3.474 m -2.880008,-3.474 2.880008,0 m -2.880008,-12.402 0,12.402 m 2.880008,-12.402 -2.880008,0 m 2.880008,-17.748 0,17.748 m -2.880008,-17.748 2.880008,0 m -2.880008,-12.402 0,12.402 m 2.880008,-12.402 -2.880008,0 m 2.880008,-3.474 0,3.474 m 49.50013,-3.474 -49.50013,0"
         style="fill:none;stroke:#ff0000;stroke-width:1.00000131"
         id="path3943" />
      <path
         inkscape:connector-curvature="0"
         d="m 191.24646,867.46987 0,-3.474 m 2.88001,3.474 -2.88001,0 m 2.88001,12.402 0,-12.402 m -2.88001,12.402 2.88001,0 m -2.88001,17.748 0,-17.748 m 2.88001,17.748 -2.88001,0 m 2.88001,12.402 0,-12.402 m -2.88001,12.402 2.88001,0 m -2.88001,3.474 0,-3.474 m -49.50013,3.474 49.50013,0 m -49.50013,-3.474 0,3.474 m -2.88001,-3.474 2.88001,0 m -2.88001,-12.402 0,12.402 m 2.88001,-12.402 -2.88001,0 m 2.88001,-17.748 0,17.748 m -2.88001,-17.748 2.88001,0 m -2.88001,-12.402 0,12.402 m 2.88001,-12.402 -2.88001,0 m 2.88001,-3.474 0,3.474 m 49.50013,-3.474 -49.50013,0"
         style="fill:none;stroke:#ff0000;stroke-width:1.00000131"
         id="path3983" />
      <path
         inkscape:connector-curvature="0"
         d="m 258.74665,849.75333 0,-3.474 m 2.88,3.474 -2.88,0 m 2.88,12.402 0,-12.402 m -2.88,12.402 2.88,0 m -2.88,17.748 0,-17.748 m 2.88,17.748 -2.88,0 m 2.88,12.402 0,-12.402 m -2.88,12.402 2.88,0 m -2.88,3.474 0,-3.474 m -49.50014,3.474 49.50014,0 m -49.50014,-3.474 0,3.474 m -2.88001,-3.474 2.88001,0 m -2.88001,-12.402 0,12.402 m 2.88001,-12.402 -2.88001,0 m 2.88001,-17.748 0,17.748 m -2.88001,-17.748 2.88001,0 m -2.88001,-12.402 0,12.402 m 2.88001,-12.402 -2.88001,0 m 2.88001,-3.474 0,3.474 m 49.50014,-3.474 -49.50014,0"
         style="fill:none;stroke:#ff0000;stroke-width:1.00000131"
         id="path4023" />
      <path
         inkscape:connector-curvature="0"
         d="m 326.24683,867.46987 0,-3.474 m 2.88001,3.474 -2.88001,0 m 2.88001,12.402 0,-12.402 m -2.88001,12.402 2.88001,0 m -2.88001,17.748 0,-17.748 m 2.88001,17.748 -2.88001,0 m 2.88001,12.402 0,-12.402 m -2.88001,12.402 2.88001,0 m -2.88001,3.474 0,-3.474 m -49.50014,3.474 49.50014,0 m -49.50014,-3.474 0,3.474 m -2.88,-3.474 2.88,0 m -2.88,-12.402 0,12.402 m 2.88,-12.402 -2.88,0 m 2.88,-17.748 0,17.748 m -2.88,-17.748 2.88,0 m -2.88,-12.402 0,12.402 m 2.88,-12.402 -2.88,0 m 2.88,-3.474 0,3.474 m 49.50014,-3.474 -49.50014,0"
         style="fill:none;stroke:#ff0000;stroke-width:1.00000131"
         id="path4063" />
      <path
         inkscape:connector-curvature="0"
         d="m 393.74701,889.32463 0,-3.474 m 2.88001,3.474 -2.88001,0 m 2.88001,12.402 0,-12.402 m -2.88001,12.402 2.88001,0 m -2.88001,17.748 0,-17.748 m 2.88001,17.748 -2.88001,0 m 2.88001,12.402 0,-12.402 m -2.88001,12.402 2.88001,0 m -2.88001,3.474 0,-3.474 m -49.50013,3.474 49.50013,0 m -49.50013,-3.474 0,3.474 m -2.88001,-3.474 2.88001,0 m -2.88001,-12.402 0,12.402 m 2.88001,-12.402 -2.88001,0 m 2.88001,-17.748 0,17.748 m -2.88001,-17.748 2.88001,0 m -2.88001,-12.402 0,12.402 m 2.88001,-12.402 -2.88001,0 m 2.88001,-3.474 0,3.474 m 49.50013,-3.474 -49.50013,0"
         style="fill:none;stroke:#ff0000;stroke-width:1.00000131"
         id="path4103" />
      <path
         inkscape:connector-curvature="0"
         d="m 123.74628,946.41896 0,-3.474 m 2.88001,3.474 -2.88001,0 m 2.88001,12.402 0,-12.402 m -2.88001,12.402 2.88001,0 m -2.88001,17.748 0,-17.748 m 2.88001,17.748 -2.88001,0 m 2.88001,12.402 0,-12.402 m -2.88001,12.402 2.88001,0 m -2.88001,3.474 0,-3.474 m -49.50013,3.474 49.50013,0 m -49.50013,-3.474 0,3.474 m -2.880008,-3.474 2.880008,0 m -2.880008,-12.402 0,12.402 m 2.880008,-12.402 -2.880008,0 m 2.880008,-17.748 0,17.748 m -2.880008,-17.748 2.880008,0 m -2.880008,-12.402 0,12.402 m 2.880008,-12.402 -2.880008,0 m 2.880008,-3.474 0,3.474 m 49.50013,-3.474 -49.50013,0"
         style="fill:none;stroke:#ff0000;stroke-width:1.00000131"
         id="path4143" />
      <path
         inkscape:connector-curvature="0"
         d="m 258.74665,917.25333 0,-3.474 m 2.88,3.474 -2.88,0 m 2.88,12.402 0,-12.402 m -2.88,12.402 2.88,0 m -2.88,17.748 0,-17.748 m 2.88,17.748 -2.88,0 m 2.88,12.402 0,-12.402 m -2.88,12.402 2.88,0 m -2.88,3.474 0,-3.474 m -49.50014,3.474 49.50014,0 m -49.50014,-3.474 0,3.474 m -2.88001,-3.474 2.88001,0 m -2.88001,-12.402 0,12.402 m 2.88001,-12.402 -2.88001,0 m 2.88001,-17.748 0,17.748 m -2.88001,-17.748 2.88001,0 m -2.88001,-12.402 0,12.402 m 2.88001,-12.402 -2.88001,0 m 2.88001,-3.474 0,3.474 m 49.50014,-3.474 -49.50014,0"
         style="fill:none;stroke:#ff0000;stroke-width:1.00000131"
         id="path4183" />
      <path
         inkscape:connector-curvature="0"
         d="m 326.24683,934.96987 0,-3.474 m 2.88001,3.474 -2.88001,0 m 2.88001,12.402 0,-12.402 m -2.88001,12.402 2.88001,0 m -2.88001,17.748 0,-17.748 m 2.88001,17.748 -2.88001,0 m 2.88001,12.402 0,-12.402 m -2.88001,12.402 2.88001,0 m -2.88001,3.474 0,-3.474 m -49.50014,3.474 49.50014,0 m -49.50014,-3.474 0,3.474 m -2.88,-3.474 2.88,0 m -2.88,-12.402 0,12.402 m 2.88,-12.402 -2.88,0 m 2.88,-17.748 0,17.748 m -2.88,-17.748 2.88,0 m -2.88,-12.402 0,12.402 m 2.88,-12.402 -2.88,0 m 2.88,-3.474 0,3.474 m 49.50014,-3.474 -49.50014,0"
         style="fill:none;stroke:#ff0000;stroke-width:1.00000131"
         id="path4223" />
      <path
         inkscape:connector-curvature="0"
         d="m 191.24646,732.46987 0,-3.474 m 2.88001,3.474 -2.88001,0 m 2.88001,12.402 0,-12.402 m -2.88001,12.402 2.88001,0 m -2.88001,17.748 0,-17.748 m 2.88001,17.748 -2.88001,0 m 2.88001,12.402 0,-12.402 m -2.88001,12.402 2.88001,0 m -2.88001,3.474 0,-3.474 m -49.50013,3.474 49.50013,0 m -49.50013,-3.474 0,3.474 m -2.88001,-3.474 2.88001,0 m -2.88001,-12.402 0,12.402 m 2.88001,-12.402 -2.88001,0 m 2.88001,-17.748 0,17.748 m -2.88001,-17.748 2.88001,0 m -2.88001,-12.402 0,12.402 m 2.88001,-12.402 -2.88001,0 m 2.88001,-3.474 0,3.474 m 49.50013,-3.474 -49.50013,0"
         style="fill:none;stroke:#ff0000;stroke-width:1.00000131"
         id="path4343" />
      <path
         inkscape:connector-curvature="0"
         id="path5501"
         style="fill:none;stroke:#ff0000;stroke-width:1.00000131"
         d="m 394.48378,952.6864 0,-3.474 m 2.88001,3.474 -2.88001,0 m 2.88001,12.402 0,-12.402 m -2.88001,12.402 2.88001,0 m -2.88001,17.748 0,-17.748 m 2.88001,17.748 -2.88001,0 m 2.88001,12.402 0,-12.402 m -2.88001,12.402 2.88001,0 m -2.88001,3.474 0,-3.474 m -49.50013,3.474 49.50013,0 m -49.50013,-3.474 0,3.474 m -2.88001,-3.474 2.88001,0 m -2.88001,-12.402 0,12.402 m 2.88001,-12.402 -2.88001,0 m 2.88001,-17.748 0,17.748 m -2.88001,-17.748 2.88001,0 m -2.88001,-12.402 0,12.402 m 2.88001,-12.402 -2.88001,0 m 2.88001,-3.474 0,3.474 m 49.50013,-3.474 -49.50013,0" />
    </g>
    <path
       style="fill:none;stroke:#ff0000;stroke-width:1.22030044;stroke-miterlimit:4;stroke-opacity:1"
       d="m 60.452094,645.49182 800.578346,0 c 13.51828,0 23.08336,20.68759 24.80315,46.25518 l 17.10642,254.31572 c 1.71979,25.56759 -322.48578,87.97258 -336.00406,87.97258 l -212.59842,0 c -13.51828,0 -337.723816,-62.40497 -336.004027,-87.97258 L 35.439889,691.747 c 1.719788,-25.5676 11.493925,-46.25518 25.012205,-46.25518 z"
       id="rect6039"
       inkscape:connector-curvature="0"
       sodipodi:nodetypes="sssssssss" />
    <path
       sodipodi:type="arc"
       style="fill:none;stroke:#ff0000;stroke-width:2.71440148;stroke-miterlimit:4;stroke-opacity:1;stroke-dasharray:none"
       id="path3402"
       sodipodi:cx="205.06096"
       sodipodi:cy="1105.1703"
       sodipodi:rx="14.142136"
       sodipodi:ry="14.142136"
       d="m 219.20309,1105.1703 c 0,7.8105 -6.33165,14.1421 -14.14213,14.1421 -7.81049,0 -14.14214,-6.3316 -14.14214,-14.1421 0,-7.8105 6.33165,-14.1421 14.14214,-14.1421 7.81048,0 14.14213,6.3316 14.14213,14.1421 z"
       transform="matrix(0.38063606,0,0,0.38063606,335.32633,239.57427)" />
    <path
       transform="matrix(0.38063606,0,0,0.38063606,-19.004383,246.66088)"
       d="m 219.20309,1105.1703 c 0,7.8105 -6.33165,14.1421 -14.14213,14.1421 -7.81049,0 -14.14214,-6.3316 -14.14214,-14.1421 0,-7.8105 6.33165,-14.1421 14.14214,-14.1421 7.81048,0 14.14213,6.3316 14.14213,14.1421 z"
       sodipodi:ry="14.142136"
       sodipodi:rx="14.142136"
       sodipodi:cy="1105.1703"
       sodipodi:cx="205.06096"
       id="path4178"
       style="fill:none;stroke:#ff0000;stroke-width:2.71440148;stroke-miterlimit:4;stroke-opacity:1;stroke-dasharray:none"
       sodipodi:type="arc" />
    <path
       transform="matrix(0.38063606,0,0,0.38063606,430.99562,239.57427)"
       d="m 219.20309,1105.1703 c 0,7.8105 -6.33165,14.1421 -14.14213,14.1421 -7.81049,0 -14.14214,-6.3316 -14.14214,-14.1421 0,-7.8105 6.33165,-14.1421 14.14214,-14.1421 7.81048,0 14.14213,6.3316 14.14213,14.1421 z"
       sodipodi:ry="14.142136"
       sodipodi:rx="14.142136"
       sodipodi:cy="1105.1703"
       sodipodi:cx="205.06096"
       id="path4180"
       style="fill:none;stroke:#ff0000;stroke-width:2.71440148;stroke-miterlimit:4;stroke-opacity:1;stroke-dasharray:none"
       sodipodi:type="arc" />
    <path
       sodipodi:type="arc"
       style="fill:none;stroke:#ff0000;stroke-width:2.71440148;stroke-miterlimit:4;stroke-opacity:1;stroke-dasharray:none"
       id="path4182"
       sodipodi:cx="205.06096"
       sodipodi:cy="1105.1703"
       sodipodi:rx="14.142136"
       sodipodi:ry="14.142136"
       d="m 219.20309,1105.1703 c 0,7.8105 -6.33165,14.1421 -14.14213,14.1421 -7.81049,0 -14.14214,-6.3316 -14.14214,-14.1421 0,-7.8105 6.33165,-14.1421 14.14214,-14.1421 7.81048,0 14.14213,6.3316 14.14213,14.1421 z"
       transform="matrix(0.38063606,0,0,0.38063606,636.50743,569.10175)" />
    <path
       transform="matrix(0.40309815,0,0,0.3796237,781.05221,247.76554)"
       d="m 219.20309,1105.1703 c 0,7.8105 -6.33165,14.1421 -14.14213,14.1421 -7.81049,0 -14.14214,-6.3316 -14.14214,-14.1421 0,-7.8105 6.33165,-14.1421 14.14214,-14.1421 7.81048,0 14.14213,6.3316 14.14213,14.1421 z"
       sodipodi:ry="14.142136"
       sodipodi:rx="14.142136"
       sodipodi:cy="1105.1703"
       sodipodi:cx="205.06096"
       id="path4184"
       style="fill:none;stroke:#ff0000;stroke-width:2.71440148;stroke-miterlimit:4;stroke-opacity:1;stroke-dasharray:none"
       sodipodi:type="arc" />
    <path
       sodipodi:type="arc"
       style="fill:none;stroke:#ff0000;stroke-width:2.71440148;stroke-miterlimit:4;stroke-opacity:1;stroke-dasharray:none"
       id="path4186"
       sodipodi:cx="205.06096"
       sodipodi:cy="1105.1703"
       sodipodi:rx="14.142136"
       sodipodi:ry="14.142136"
       d="m 219.20309,1105.1703 c 0,7.8105 -6.33165,14.1421 -14.14213,14.1421 -7.81049,0 -14.14214,-6.3316 -14.14214,-14.1421 0,-7.8105 6.33165,-14.1421 14.14214,-14.1421 7.81048,0 14.14213,6.3316 14.14213,14.1421 z"
       transform="matrix(0.38063606,0,0,0.38063606,140.44444,568.90332)" />
    <g
       transform="matrix(-0.98480775,0.17364818,0.17364818,0.98480775,768.79497,-54.076345)"
       id="g5584">
      <path
         id="path5586"
         style="fill:none;stroke:#ff0000;stroke-width:1.00000131"
         d="m 393.74701,754.32463 0,-3.474 m 2.88001,3.474 -2.88001,0 m 2.88001,12.402 0,-12.402 m -2.88001,12.402 2.88001,0 m -2.88001,17.748 0,-17.748 m 2.88001,17.748 -2.88001,0 m 2.88001,12.402 0,-12.402 m -2.88001,12.402 2.88001,0 m -2.88001,3.474 0,-3.474 m -49.50013,3.474 49.50013,0 m -49.50013,-3.474 0,3.474 m -2.88001,-3.474 2.88001,0 m -2.88001,-12.402 0,12.402 m 2.88001,-12.402 -2.88001,0 m 2.88001,-17.748 0,17.748 m -2.88001,-17.748 2.88001,0 m -2.88001,-12.402 0,12.402 m 2.88001,-12.402 -2.88001,0 m 2.88001,-3.474 0,3.474 m 49.50013,-3.474 -49.50013,0"
         inkscape:connector-curvature="0" />
      <path
         id="path5588"
         style="fill:none;stroke:#ff0000;stroke-width:1.00000131"
         d="m 191.24646,934.96987 0,-3.474 m 2.88001,3.474 -2.88001,0 m 2.88001,12.402 0,-12.402 m -2.88001,12.402 2.88001,0 m -2.88001,17.748 0,-17.748 m 2.88001,17.748 -2.88001,0 m 2.88001,12.402 0,-12.402 m -2.88001,12.402 2.88001,0 m -2.88001,3.474 0,-3.474 m -49.50013,3.474 49.50013,0 m -49.50013,-3.474 0,3.474 m -2.88001,-3.474 2.88001,0 m -2.88001,-12.402 0,12.402 m 2.88001,-12.402 -2.88001,0 m 2.88001,-17.748 0,17.748 m -2.88001,-17.748 2.88001,0 m -2.88001,-12.402 0,12.402 m 2.88001,-12.402 -2.88001,0 m 2.88001,-3.474 0,3.474 m 49.50013,-3.474 -49.50013,0"
         inkscape:connector-curvature="0" />
      <path
         id="path5590"
         style="fill:none;stroke:#ff0000;stroke-width:1.00000131"
         d="m 123.74628,743.91896 0,-3.474 m 2.88001,3.474 -2.88001,0 m 2.88001,12.402 0,-12.402 m -2.88001,12.402 2.88001,0 m -2.88001,17.748 0,-17.748 m 2.88001,17.748 -2.88001,0 m 2.88001,12.402 0,-12.402 m -2.88001,12.402 2.88001,0 m -2.88001,3.474 0,-3.474 m -49.50013,3.474 49.50013,0 m -49.50013,-3.474 0,3.474 m -2.880008,-3.474 2.880008,0 m -2.880008,-12.402 0,12.402 m 2.880008,-12.402 -2.880008,0 m 2.880008,-17.748 0,17.748 m -2.880008,-17.748 2.880008,0 m -2.880008,-12.402 0,12.402 m 2.880008,-12.402 -2.880008,0 m 2.880008,-3.474 0,3.474 m 49.50013,-3.474 -49.50013,0"
         inkscape:connector-curvature="0" />
      <path
         id="path5592"
         style="fill:none;stroke:#ff0000;stroke-width:1.00000131"
         d="m 258.74665,714.75333 0,-3.474 m 2.88,3.474 -2.88,0 m 2.88,12.402 0,-12.402 m -2.88,12.402 2.88,0 m -2.88,17.748 0,-17.748 m 2.88,17.748 -2.88,0 m 2.88,12.402 0,-12.402 m -2.88,12.402 2.88,0 m -2.88,3.474 0,-3.474 m -49.50014,3.474 49.50014,0 m -49.50014,-3.474 0,3.474 m -2.88001,-3.474 2.88001,0 m -2.88001,-12.402 0,12.402 m 2.88001,-12.402 -2.88001,0 m 2.88001,-17.748 0,17.748 m -2.88001,-17.748 2.88001,0 m -2.88001,-12.402 0,12.402 m 2.88001,-12.402 -2.88001,0 m 2.88001,-3.474 0,3.474 m 49.50014,-3.474 -49.50014,0"
         inkscape:connector-curvature="0" />
      <path
         id="path5594"
         style="fill:none;stroke:#ff0000;stroke-width:1.00000131"
         d="m 326.24683,732.46987 0,-3.474 m 2.88001,3.474 -2.88001,0 m 2.88001,12.402 0,-12.402 m -2.88001,12.402 2.88001,0 m -2.88001,17.748 0,-17.748 m 2.88001,17.748 -2.88001,0 m 2.88001,12.402 0,-12.402 m -2.88001,12.402 2.88001,0 m -2.88001,3.474 0,-3.474 m -49.50014,3.474 49.50014,0 m -49.50014,-3.474 0,3.474 m -2.88,-3.474 2.88,0 m -2.88,-12.402 0,12.402 m 2.88,-12.402 -2.88,0 m 2.88,-17.748 0,17.748 m -2.88,-17.748 2.88,0 m -2.88,-12.402 0,12.402 m 2.88,-12.402 -2.88,0 m 2.88,-3.474 0,3.474 m 49.50014,-3.474 -49.50014,0"
         inkscape:connector-curvature="0" />
      <path
         id="path5596"
         style="fill:none;stroke:#ff0000;stroke-width:1.00000131"
         d="m 123.74628,811.41896 0,-3.474 m 2.88001,3.474 -2.88001,0 m 2.88001,12.402 0,-12.402 m -2.88001,12.402 2.88001,0 m -2.88001,17.748 0,-17.748 m 2.88001,17.748 -2.88001,0 m 2.88001,12.402 0,-12.402 m -2.88001,12.402 2.88001,0 m -2.88001,3.474 0,-3.474 m -49.50013,3.474 49.50013,0 m -49.50013,-3.474 0,3.474 m -2.880008,-3.474 2.880008,0 m -2.880008,-12.402 0,12.402 m 2.880008,-12.402 -2.880008,0 m 2.880008,-17.748 0,17.748 m -2.880008,-17.748 2.880008,0 m -2.880008,-12.402 0,12.402 m 2.880008,-12.402 -2.880008,0 m 2.880008,-3.474 0,3.474 m 49.50013,-3.474 -49.50013,0"
         inkscape:connector-curvature="0" />
      <path
         id="path5598"
         style="fill:none;stroke:#ff0000;stroke-width:1.00000131"
         d="m 191.24646,799.96987 0,-3.474 m 2.88001,3.474 -2.88001,0 m 2.88001,12.402 0,-12.402 m -2.88001,12.402 2.88001,0 m -2.88001,17.748 0,-17.748 m 2.88001,17.748 -2.88001,0 m 2.88001,12.402 0,-12.402 m -2.88001,12.402 2.88001,0 m -2.88001,3.474 0,-3.474 m -49.50013,3.474 49.50013,0 m -49.50013,-3.474 0,3.474 m -2.88001,-3.474 2.88001,0 m -2.88001,-12.402 0,12.402 m 2.88001,-12.402 -2.88001,0 m 2.88001,-17.748 0,17.748 m -2.88001,-17.748 2.88001,0 m -2.88001,-12.402 0,12.402 m 2.88001,-12.402 -2.88001,0 m 2.88001,-3.474 0,3.474 m 49.50013,-3.474 -49.50013,0"
         inkscape:connector-curvature="0" />
      <path
         id="path5600"
         style="fill:none;stroke:#ff0000;stroke-width:1.00000131"
         d="m 258.74665,782.25333 0,-3.474 m 2.88,3.474 -2.88,0 m 2.88,12.402 0,-12.402 m -2.88,12.402 2.88,0 m -2.88,17.748 0,-17.748 m 2.88,17.748 -2.88,0 m 2.88,12.402 0,-12.402 m -2.88,12.402 2.88,0 m -2.88,3.474 0,-3.474 m -49.50014,3.474 49.50014,0 m -49.50014,-3.474 0,3.474 m -2.88001,-3.474 2.88001,0 m -2.88001,-12.402 0,12.402 m 2.88001,-12.402 -2.88001,0 m 2.88001,-17.748 0,17.748 m -2.88001,-17.748 2.88001,0 m -2.88001,-12.402 0,12.402 m 2.88001,-12.402 -2.88001,0 m 2.88001,-3.474 0,3.474 m 49.50014,-3.474 -49.50014,0"
         inkscape:connector-curvature="0" />
      <path
         id="path5602"
         style="fill:none;stroke:#ff0000;stroke-width:1.00000131"
         d="m 326.24683,799.96987 0,-3.474 m 2.88001,3.474 -2.88001,0 m 2.88001,12.402 0,-12.402 m -2.88001,12.402 2.88001,0 m -2.88001,17.748 0,-17.748 m 2.88001,17.748 -2.88001,0 m 2.88001,12.402 0,-12.402 m -2.88001,12.402 2.88001,0 m -2.88001,3.474 0,-3.474 m -49.50014,3.474 49.50014,0 m -49.50014,-3.474 0,3.474 m -2.88,-3.474 2.88,0 m -2.88,-12.402 0,12.402 m 2.88,-12.402 -2.88,0 m 2.88,-17.748 0,17.748 m -2.88,-17.748 2.88,0 m -2.88,-12.402 0,12.402 m 2.88,-12.402 -2.88,0 m 2.88,-3.474 0,3.474 m 49.50014,-3.474 -49.50014,0"
         inkscape:connector-curvature="0" />
      <path
         id="path5604"
         style="fill:none;stroke:#ff0000;stroke-width:1.00000131"
         d="m 393.74701,821.82463 0,-3.474 m 2.88001,3.474 -2.88001,0 m 2.88001,12.402 0,-12.402 m -2.88001,12.402 2.88001,0 m -2.88001,17.748 0,-17.748 m 2.88001,17.748 -2.88001,0 m 2.88001,12.402 0,-12.402 m -2.88001,12.402 2.88001,0 m -2.88001,3.474 0,-3.474 m -49.50013,3.474 49.50013,0 m -49.50013,-3.474 0,3.474 m -2.88001,-3.474 2.88001,0 m -2.88001,-12.402 0,12.402 m 2.88001,-12.402 -2.88001,0 m 2.88001,-17.748 0,17.748 m -2.88001,-17.748 2.88001,0 m -2.88001,-12.402 0,12.402 m 2.88001,-12.402 -2.88001,0 m 2.88001,-3.474 0,3.474 m 49.50013,-3.474 -49.50013,0"
         inkscape:connector-curvature="0" />
      <path
         id="path5606"
         style="fill:none;stroke:#ff0000;stroke-width:1.00000131"
         d="m 123.74628,878.91896 0,-3.474 m 2.88001,3.474 -2.88001,0 m 2.88001,12.402 0,-12.402 m -2.88001,12.402 2.88001,0 m -2.88001,17.748 0,-17.748 m 2.88001,17.748 -2.88001,0 m 2.88001,12.402 0,-12.402 m -2.88001,12.402 2.88001,0 m -2.88001,3.474 0,-3.474 m -49.50013,3.474 49.50013,0 m -49.50013,-3.474 0,3.474 m -2.880008,-3.474 2.880008,0 m -2.880008,-12.402 0,12.402 m 2.880008,-12.402 -2.880008,0 m 2.880008,-17.748 0,17.748 m -2.880008,-17.748 2.880008,0 m -2.880008,-12.402 0,12.402 m 2.880008,-12.402 -2.880008,0 m 2.880008,-3.474 0,3.474 m 49.50013,-3.474 -49.50013,0"
         inkscape:connector-curvature="0" />
      <path
         id="path5608"
         style="fill:none;stroke:#ff0000;stroke-width:1.00000131"
         d="m 191.24646,867.46987 0,-3.474 m 2.88001,3.474 -2.88001,0 m 2.88001,12.402 0,-12.402 m -2.88001,12.402 2.88001,0 m -2.88001,17.748 0,-17.748 m 2.88001,17.748 -2.88001,0 m 2.88001,12.402 0,-12.402 m -2.88001,12.402 2.88001,0 m -2.88001,3.474 0,-3.474 m -49.50013,3.474 49.50013,0 m -49.50013,-3.474 0,3.474 m -2.88001,-3.474 2.88001,0 m -2.88001,-12.402 0,12.402 m 2.88001,-12.402 -2.88001,0 m 2.88001,-17.748 0,17.748 m -2.88001,-17.748 2.88001,0 m -2.88001,-12.402 0,12.402 m 2.88001,-12.402 -2.88001,0 m 2.88001,-3.474 0,3.474 m 49.50013,-3.474 -49.50013,0"
         inkscape:connector-curvature="0" />
      <path
         id="path5610"
         style="fill:none;stroke:#ff0000;stroke-width:1.00000131"
         d="m 258.74665,849.75333 0,-3.474 m 2.88,3.474 -2.88,0 m 2.88,12.402 0,-12.402 m -2.88,12.402 2.88,0 m -2.88,17.748 0,-17.748 m 2.88,17.748 -2.88,0 m 2.88,12.402 0,-12.402 m -2.88,12.402 2.88,0 m -2.88,3.474 0,-3.474 m -49.50014,3.474 49.50014,0 m -49.50014,-3.474 0,3.474 m -2.88001,-3.474 2.88001,0 m -2.88001,-12.402 0,12.402 m 2.88001,-12.402 -2.88001,0 m 2.88001,-17.748 0,17.748 m -2.88001,-17.748 2.88001,0 m -2.88001,-12.402 0,12.402 m 2.88001,-12.402 -2.88001,0 m 2.88001,-3.474 0,3.474 m 49.50014,-3.474 -49.50014,0"
         inkscape:connector-curvature="0" />
      <path
         id="path5612"
         style="fill:none;stroke:#ff0000;stroke-width:1.00000131"
         d="m 326.24683,867.46987 0,-3.474 m 2.88001,3.474 -2.88001,0 m 2.88001,12.402 0,-12.402 m -2.88001,12.402 2.88001,0 m -2.88001,17.748 0,-17.748 m 2.88001,17.748 -2.88001,0 m 2.88001,12.402 0,-12.402 m -2.88001,12.402 2.88001,0 m -2.88001,3.474 0,-3.474 m -49.50014,3.474 49.50014,0 m -49.50014,-3.474 0,3.474 m -2.88,-3.474 2.88,0 m -2.88,-12.402 0,12.402 m 2.88,-12.402 -2.88,0 m 2.88,-17.748 0,17.748 m -2.88,-17.748 2.88,0 m -2.88,-12.402 0,12.402 m 2.88,-12.402 -2.88,0 m 2.88,-3.474 0,3.474 m 49.50014,-3.474 -49.50014,0"
         inkscape:connector-curvature="0" />
      <path
         id="path5614"
         style="fill:none;stroke:#ff0000;stroke-width:1.00000131"
         d="m 393.74701,889.32463 0,-3.474 m 2.88001,3.474 -2.88001,0 m 2.88001,12.402 0,-12.402 m -2.88001,12.402 2.88001,0 m -2.88001,17.748 0,-17.748 m 2.88001,17.748 -2.88001,0 m 2.88001,12.402 0,-12.402 m -2.88001,12.402 2.88001,0 m -2.88001,3.474 0,-3.474 m -49.50013,3.474 49.50013,0 m -49.50013,-3.474 0,3.474 m -2.88001,-3.474 2.88001,0 m -2.88001,-12.402 0,12.402 m 2.88001,-12.402 -2.88001,0 m 2.88001,-17.748 0,17.748 m -2.88001,-17.748 2.88001,0 m -2.88001,-12.402 0,12.402 m 2.88001,-12.402 -2.88001,0 m 2.88001,-3.474 0,3.474 m 49.50013,-3.474 -49.50013,0"
         inkscape:connector-curvature="0" />
      <path
         id="path5616"
         style="fill:none;stroke:#ff0000;stroke-width:1.00000131"
         d="m 123.74628,946.41896 0,-3.474 m 2.88001,3.474 -2.88001,0 m 2.88001,12.402 0,-12.402 m -2.88001,12.402 2.88001,0 m -2.88001,17.748 0,-17.748 m 2.88001,17.748 -2.88001,0 m 2.88001,12.402 0,-12.402 m -2.88001,12.402 2.88001,0 m -2.88001,3.474 0,-3.474 m -49.50013,3.474 49.50013,0 m -49.50013,-3.474 0,3.474 m -2.880008,-3.474 2.880008,0 m -2.880008,-12.402 0,12.402 m 2.880008,-12.402 -2.880008,0 m 2.880008,-17.748 0,17.748 m -2.880008,-17.748 2.880008,0 m -2.880008,-12.402 0,12.402 m 2.880008,-12.402 -2.880008,0 m 2.880008,-3.474 0,3.474 m 49.50013,-3.474 -49.50013,0"
         inkscape:connector-curvature="0" />
      <path
         id="path5618"
         style="fill:none;stroke:#ff0000;stroke-width:1.00000131"
         d="m 258.74665,917.25333 0,-3.474 m 2.88,3.474 -2.88,0 m 2.88,12.402 0,-12.402 m -2.88,12.402 2.88,0 m -2.88,17.748 0,-17.748 m 2.88,17.748 -2.88,0 m 2.88,12.402 0,-12.402 m -2.88,12.402 2.88,0 m -2.88,3.474 0,-3.474 m -49.50014,3.474 49.50014,0 m -49.50014,-3.474 0,3.474 m -2.88001,-3.474 2.88001,0 m -2.88001,-12.402 0,12.402 m 2.88001,-12.402 -2.88001,0 m 2.88001,-17.748 0,17.748 m -2.88001,-17.748 2.88001,0 m -2.88001,-12.402 0,12.402 m 2.88001,-12.402 -2.88001,0 m 2.88001,-3.474 0,3.474 m 49.50014,-3.474 -49.50014,0"
         inkscape:connector-curvature="0" />
      <path
         id="path5620"
         style="fill:none;stroke:#ff0000;stroke-width:1.00000131"
         d="m 326.24683,934.96987 0,-3.474 m 2.88001,3.474 -2.88001,0 m 2.88001,12.402 0,-12.402 m -2.88001,12.402 2.88001,0 m -2.88001,17.748 0,-17.748 m 2.88001,17.748 -2.88001,0 m 2.88001,12.402 0,-12.402 m -2.88001,12.402 2.88001,0 m -2.88001,3.474 0,-3.474 m -49.50014,3.474 49.50014,0 m -49.50014,-3.474 0,3.474 m -2.88,-3.474 2.88,0 m -2.88,-12.402 0,12.402 m 2.88,-12.402 -2.88,0 m 2.88,-17.748 0,17.748 m -2.88,-17.748 2.88,0 m -2.88,-12.402 0,12.402 m 2.88,-12.402 -2.88,0 m 2.88,-3.474 0,3.474 m 49.50014,-3.474 -49.50014,0"
         inkscape:connector-curvature="0" />
      <path
         id="path5622"
         style="fill:none;stroke:#ff0000;stroke-width:1.00000131"
         d="m 191.24646,732.46987 0,-3.474 m 2.88001,3.474 -2.88001,0 m 2.88001,12.402 0,-12.402 m -2.88001,12.402 2.88001,0 m -2.88001,17.748 0,-17.748 m 2.88001,17.748 -2.88001,0 m 2.88001,12.402 0,-12.402 m -2.88001,12.402 2.88001,0 m -2.88001,3.474 0,-3.474 m -49.50013,3.474 49.50013,0 m -49.50013,-3.474 0,3.474 m -2.88001,-3.474 2.88001,0 m -2.88001,-12.402 0,12.402 m 2.88001,-12.402 -2.88001,0 m 2.88001,-17.748 0,17.748 m -2.88001,-17.748 2.88001,0 m -2.88001,-12.402 0,12.402 m 2.88001,-12.402 -2.88001,0 m 2.88001,-3.474 0,3.474 m 49.50013,-3.474 -49.50013,0"
         inkscape:connector-curvature="0" />
      <path
         d="m 394.48378,952.6864 0,-3.474 m 2.88001,3.474 -2.88001,0 m 2.88001,12.402 0,-12.402 m -2.88001,12.402 2.88001,0 m -2.88001,17.748 0,-17.748 m 2.88001,17.748 -2.88001,0 m 2.88001,12.402 0,-12.402 m -2.88001,12.402 2.88001,0 m -2.88001,3.474 0,-3.474 m -49.50013,3.474 49.50013,0 m -49.50013,-3.474 0,3.474 m -2.88001,-3.474 2.88001,0 m -2.88001,-12.402 0,12.402 m 2.88001,-12.402 -2.88001,0 m 2.88001,-17.748 0,17.748 m -2.88001,-17.748 2.88001,0 m -2.88001,-12.402 0,12.402 m 2.88001,-12.402 -2.88001,0 m 2.88001,-3.474 0,3.474 m 49.50013,-3.474 -49.50013,0"
         style="fill:none;stroke:#ff0000;stroke-width:1.00000131"
         id="path5624"
         inkscape:connector-curvature="0" />
    </g>
    <path
       sodipodi:nodetypes="sssssssss"
       inkscape:connector-curvature="0"
       id="path5626"
       d="m 76.130373,680.13734 768.999087,0 c 12.43777,0 14.19685,16.98175 15.89416,37.92142 l 17.188,212.04778 c 1.69731,20.93969 -307.34112,70.87686 -319.7789,70.87686 l -195.60564,0 c -12.43777,0 -321.527989,-49.94164 -319.778859,-70.87686 L 60.764732,718.05876 c 1.749127,-20.9352 2.927864,-37.92142 15.365641,-37.92142 z"
       style="fill:none;stroke:#ff0000;stroke-width:1.05983841;stroke-miterlimit:4;stroke-opacity:1" />
  </g>
  <g
     style="display:inline"
     transform="translate(0,205.51205)"
     id="g5832"
     inkscape:groupmode="layer"
     inkscape:label="Plate">
    <g
       transform="matrix(0.98480775,0.17364818,-0.17364818,0.98480775,155.10068,-53.3287)"
       id="g5834">
      <path
         id="path5836"
         style="fill:none;stroke:#ff0000;stroke-width:1.00000131"
         d="m 393.74701,754.32463 0,-3.474 m 2.88001,3.474 -2.88001,0 m 2.88001,12.402 0,-12.402 m -2.88001,12.402 2.88001,0 m -2.88001,17.748 0,-17.748 m 2.88001,17.748 -2.88001,0 m 2.88001,12.402 0,-12.402 m -2.88001,12.402 2.88001,0 m -2.88001,3.474 0,-3.474 m -49.50013,3.474 49.50013,0 m -49.50013,-3.474 0,3.474 m -2.88001,-3.474 2.88001,0 m -2.88001,-12.402 0,12.402 m 2.88001,-12.402 -2.88001,0 m 2.88001,-17.748 0,17.748 m -2.88001,-17.748 2.88001,0 m -2.88001,-12.402 0,12.402 m 2.88001,-12.402 -2.88001,0 m 2.88001,-3.474 0,3.474 m 49.50013,-3.474 -49.50013,0"
         inkscape:connector-curvature="0" />
      <path
         id="path5838"
         style="fill:none;stroke:#ff0000;stroke-width:1.00000131"
         d="m 191.24646,934.96987 0,-3.474 m 2.88001,3.474 -2.88001,0 m 2.88001,12.402 0,-12.402 m -2.88001,12.402 2.88001,0 m -2.88001,17.748 0,-17.748 m 2.88001,17.748 -2.88001,0 m 2.88001,12.402 0,-12.402 m -2.88001,12.402 2.88001,0 m -2.88001,3.474 0,-3.474 m -49.50013,3.474 49.50013,0 m -49.50013,-3.474 0,3.474 m -2.88001,-3.474 2.88001,0 m -2.88001,-12.402 0,12.402 m 2.88001,-12.402 -2.88001,0 m 2.88001,-17.748 0,17.748 m -2.88001,-17.748 2.88001,0 m -2.88001,-12.402 0,12.402 m 2.88001,-12.402 -2.88001,0 m 2.88001,-3.474 0,3.474 m 49.50013,-3.474 -49.50013,0"
         inkscape:connector-curvature="0" />
      <path
         id="path5840"
         style="fill:none;stroke:#ff0000;stroke-width:1.00000131"
         d="m 123.74628,743.91896 0,-3.474 m 2.88001,3.474 -2.88001,0 m 2.88001,12.402 0,-12.402 m -2.88001,12.402 2.88001,0 m -2.88001,17.748 0,-17.748 m 2.88001,17.748 -2.88001,0 m 2.88001,12.402 0,-12.402 m -2.88001,12.402 2.88001,0 m -2.88001,3.474 0,-3.474 m -49.50013,3.474 49.50013,0 m -49.50013,-3.474 0,3.474 m -2.880008,-3.474 2.880008,0 m -2.880008,-12.402 0,12.402 m 2.880008,-12.402 -2.880008,0 m 2.880008,-17.748 0,17.748 m -2.880008,-17.748 2.880008,0 m -2.880008,-12.402 0,12.402 m 2.880008,-12.402 -2.880008,0 m 2.880008,-3.474 0,3.474 m 49.50013,-3.474 -49.50013,0"
         inkscape:connector-curvature="0" />
      <path
         id="path5842"
         style="fill:none;stroke:#ff0000;stroke-width:1.00000131"
         d="m 258.74665,714.75333 0,-3.474 m 2.88,3.474 -2.88,0 m 2.88,12.402 0,-12.402 m -2.88,12.402 2.88,0 m -2.88,17.748 0,-17.748 m 2.88,17.748 -2.88,0 m 2.88,12.402 0,-12.402 m -2.88,12.402 2.88,0 m -2.88,3.474 0,-3.474 m -49.50014,3.474 49.50014,0 m -49.50014,-3.474 0,3.474 m -2.88001,-3.474 2.88001,0 m -2.88001,-12.402 0,12.402 m 2.88001,-12.402 -2.88001,0 m 2.88001,-17.748 0,17.748 m -2.88001,-17.748 2.88001,0 m -2.88001,-12.402 0,12.402 m 2.88001,-12.402 -2.88001,0 m 2.88001,-3.474 0,3.474 m 49.50014,-3.474 -49.50014,0"
         inkscape:connector-curvature="0" />
      <path
         id="path5844"
         style="fill:none;stroke:#ff0000;stroke-width:1.00000131"
         d="m 326.24683,732.46987 0,-3.474 m 2.88001,3.474 -2.88001,0 m 2.88001,12.402 0,-12.402 m -2.88001,12.402 2.88001,0 m -2.88001,17.748 0,-17.748 m 2.88001,17.748 -2.88001,0 m 2.88001,12.402 0,-12.402 m -2.88001,12.402 2.88001,0 m -2.88001,3.474 0,-3.474 m -49.50014,3.474 49.50014,0 m -49.50014,-3.474 0,3.474 m -2.88,-3.474 2.88,0 m -2.88,-12.402 0,12.402 m 2.88,-12.402 -2.88,0 m 2.88,-17.748 0,17.748 m -2.88,-17.748 2.88,0 m -2.88,-12.402 0,12.402 m 2.88,-12.402 -2.88,0 m 2.88,-3.474 0,3.474 m 49.50014,-3.474 -49.50014,0"
         inkscape:connector-curvature="0" />
      <path
         id="path5846"
         style="fill:none;stroke:#ff0000;stroke-width:1.00000131"
         d="m 123.74628,811.41896 0,-3.474 m 2.88001,3.474 -2.88001,0 m 2.88001,12.402 0,-12.402 m -2.88001,12.402 2.88001,0 m -2.88001,17.748 0,-17.748 m 2.88001,17.748 -2.88001,0 m 2.88001,12.402 0,-12.402 m -2.88001,12.402 2.88001,0 m -2.88001,3.474 0,-3.474 m -49.50013,3.474 49.50013,0 m -49.50013,-3.474 0,3.474 m -2.880008,-3.474 2.880008,0 m -2.880008,-12.402 0,12.402 m 2.880008,-12.402 -2.880008,0 m 2.880008,-17.748 0,17.748 m -2.880008,-17.748 2.880008,0 m -2.880008,-12.402 0,12.402 m 2.880008,-12.402 -2.880008,0 m 2.880008,-3.474 0,3.474 m 49.50013,-3.474 -49.50013,0"
         inkscape:connector-curvature="0" />
      <path
         id="path5848"
         style="fill:none;stroke:#ff0000;stroke-width:1.00000131"
         d="m 191.24646,799.96987 0,-3.474 m 2.88001,3.474 -2.88001,0 m 2.88001,12.402 0,-12.402 m -2.88001,12.402 2.88001,0 m -2.88001,17.748 0,-17.748 m 2.88001,17.748 -2.88001,0 m 2.88001,12.402 0,-12.402 m -2.88001,12.402 2.88001,0 m -2.88001,3.474 0,-3.474 m -49.50013,3.474 49.50013,0 m -49.50013,-3.474 0,3.474 m -2.88001,-3.474 2.88001,0 m -2.88001,-12.402 0,12.402 m 2.88001,-12.402 -2.88001,0 m 2.88001,-17.748 0,17.748 m -2.88001,-17.748 2.88001,0 m -2.88001,-12.402 0,12.402 m 2.88001,-12.402 -2.88001,0 m 2.88001,-3.474 0,3.474 m 49.50013,-3.474 -49.50013,0"
         inkscape:connector-curvature="0" />
      <path
         id="path5850"
         style="fill:none;stroke:#ff0000;stroke-width:1.00000131"
         d="m 258.74665,782.25333 0,-3.474 m 2.88,3.474 -2.88,0 m 2.88,12.402 0,-12.402 m -2.88,12.402 2.88,0 m -2.88,17.748 0,-17.748 m 2.88,17.748 -2.88,0 m 2.88,12.402 0,-12.402 m -2.88,12.402 2.88,0 m -2.88,3.474 0,-3.474 m -49.50014,3.474 49.50014,0 m -49.50014,-3.474 0,3.474 m -2.88001,-3.474 2.88001,0 m -2.88001,-12.402 0,12.402 m 2.88001,-12.402 -2.88001,0 m 2.88001,-17.748 0,17.748 m -2.88001,-17.748 2.88001,0 m -2.88001,-12.402 0,12.402 m 2.88001,-12.402 -2.88001,0 m 2.88001,-3.474 0,3.474 m 49.50014,-3.474 -49.50014,0"
         inkscape:connector-curvature="0" />
      <path
         id="path5852"
         style="fill:none;stroke:#ff0000;stroke-width:1.00000131"
         d="m 326.24683,799.96987 0,-3.474 m 2.88001,3.474 -2.88001,0 m 2.88001,12.402 0,-12.402 m -2.88001,12.402 2.88001,0 m -2.88001,17.748 0,-17.748 m 2.88001,17.748 -2.88001,0 m 2.88001,12.402 0,-12.402 m -2.88001,12.402 2.88001,0 m -2.88001,3.474 0,-3.474 m -49.50014,3.474 49.50014,0 m -49.50014,-3.474 0,3.474 m -2.88,-3.474 2.88,0 m -2.88,-12.402 0,12.402 m 2.88,-12.402 -2.88,0 m 2.88,-17.748 0,17.748 m -2.88,-17.748 2.88,0 m -2.88,-12.402 0,12.402 m 2.88,-12.402 -2.88,0 m 2.88,-3.474 0,3.474 m 49.50014,-3.474 -49.50014,0"
         inkscape:connector-curvature="0" />
      <path
         id="path5854"
         style="fill:none;stroke:#ff0000;stroke-width:1.00000131"
         d="m 393.74701,821.82463 0,-3.474 m 2.88001,3.474 -2.88001,0 m 2.88001,12.402 0,-12.402 m -2.88001,12.402 2.88001,0 m -2.88001,17.748 0,-17.748 m 2.88001,17.748 -2.88001,0 m 2.88001,12.402 0,-12.402 m -2.88001,12.402 2.88001,0 m -2.88001,3.474 0,-3.474 m -49.50013,3.474 49.50013,0 m -49.50013,-3.474 0,3.474 m -2.88001,-3.474 2.88001,0 m -2.88001,-12.402 0,12.402 m 2.88001,-12.402 -2.88001,0 m 2.88001,-17.748 0,17.748 m -2.88001,-17.748 2.88001,0 m -2.88001,-12.402 0,12.402 m 2.88001,-12.402 -2.88001,0 m 2.88001,-3.474 0,3.474 m 49.50013,-3.474 -49.50013,0"
         inkscape:connector-curvature="0" />
      <path
         id="path5856"
         style="fill:none;stroke:#ff0000;stroke-width:1.00000131"
         d="m 123.74628,878.91896 0,-3.474 m 2.88001,3.474 -2.88001,0 m 2.88001,12.402 0,-12.402 m -2.88001,12.402 2.88001,0 m -2.88001,17.748 0,-17.748 m 2.88001,17.748 -2.88001,0 m 2.88001,12.402 0,-12.402 m -2.88001,12.402 2.88001,0 m -2.88001,3.474 0,-3.474 m -49.50013,3.474 49.50013,0 m -49.50013,-3.474 0,3.474 m -2.880008,-3.474 2.880008,0 m -2.880008,-12.402 0,12.402 m 2.880008,-12.402 -2.880008,0 m 2.880008,-17.748 0,17.748 m -2.880008,-17.748 2.880008,0 m -2.880008,-12.402 0,12.402 m 2.880008,-12.402 -2.880008,0 m 2.880008,-3.474 0,3.474 m 49.50013,-3.474 -49.50013,0"
         inkscape:connector-curvature="0" />
      <path
         id="path5858"
         style="fill:none;stroke:#ff0000;stroke-width:1.00000131"
         d="m 191.24646,867.46987 0,-3.474 m 2.88001,3.474 -2.88001,0 m 2.88001,12.402 0,-12.402 m -2.88001,12.402 2.88001,0 m -2.88001,17.748 0,-17.748 m 2.88001,17.748 -2.88001,0 m 2.88001,12.402 0,-12.402 m -2.88001,12.402 2.88001,0 m -2.88001,3.474 0,-3.474 m -49.50013,3.474 49.50013,0 m -49.50013,-3.474 0,3.474 m -2.88001,-3.474 2.88001,0 m -2.88001,-12.402 0,12.402 m 2.88001,-12.402 -2.88001,0 m 2.88001,-17.748 0,17.748 m -2.88001,-17.748 2.88001,0 m -2.88001,-12.402 0,12.402 m 2.88001,-12.402 -2.88001,0 m 2.88001,-3.474 0,3.474 m 49.50013,-3.474 -49.50013,0"
         inkscape:connector-curvature="0" />
      <path
         id="path5860"
         style="fill:none;stroke:#ff0000;stroke-width:1.00000131"
         d="m 258.74665,849.75333 0,-3.474 m 2.88,3.474 -2.88,0 m 2.88,12.402 0,-12.402 m -2.88,12.402 2.88,0 m -2.88,17.748 0,-17.748 m 2.88,17.748 -2.88,0 m 2.88,12.402 0,-12.402 m -2.88,12.402 2.88,0 m -2.88,3.474 0,-3.474 m -49.50014,3.474 49.50014,0 m -49.50014,-3.474 0,3.474 m -2.88001,-3.474 2.88001,0 m -2.88001,-12.402 0,12.402 m 2.88001,-12.402 -2.88001,0 m 2.88001,-17.748 0,17.748 m -2.88001,-17.748 2.88001,0 m -2.88001,-12.402 0,12.402 m 2.88001,-12.402 -2.88001,0 m 2.88001,-3.474 0,3.474 m 49.50014,-3.474 -49.50014,0"
         inkscape:connector-curvature="0" />
      <path
         id="path5862"
         style="fill:none;stroke:#ff0000;stroke-width:1.00000131"
         d="m 326.24683,867.46987 0,-3.474 m 2.88001,3.474 -2.88001,0 m 2.88001,12.402 0,-12.402 m -2.88001,12.402 2.88001,0 m -2.88001,17.748 0,-17.748 m 2.88001,17.748 -2.88001,0 m 2.88001,12.402 0,-12.402 m -2.88001,12.402 2.88001,0 m -2.88001,3.474 0,-3.474 m -49.50014,3.474 49.50014,0 m -49.50014,-3.474 0,3.474 m -2.88,-3.474 2.88,0 m -2.88,-12.402 0,12.402 m 2.88,-12.402 -2.88,0 m 2.88,-17.748 0,17.748 m -2.88,-17.748 2.88,0 m -2.88,-12.402 0,12.402 m 2.88,-12.402 -2.88,0 m 2.88,-3.474 0,3.474 m 49.50014,-3.474 -49.50014,0"
         inkscape:connector-curvature="0" />
      <path
         id="path5864"
         style="fill:none;stroke:#ff0000;stroke-width:1.00000131"
         d="m 393.74701,889.32463 0,-3.474 m 2.88001,3.474 -2.88001,0 m 2.88001,12.402 0,-12.402 m -2.88001,12.402 2.88001,0 m -2.88001,17.748 0,-17.748 m 2.88001,17.748 -2.88001,0 m 2.88001,12.402 0,-12.402 m -2.88001,12.402 2.88001,0 m -2.88001,3.474 0,-3.474 m -49.50013,3.474 49.50013,0 m -49.50013,-3.474 0,3.474 m -2.88001,-3.474 2.88001,0 m -2.88001,-12.402 0,12.402 m 2.88001,-12.402 -2.88001,0 m 2.88001,-17.748 0,17.748 m -2.88001,-17.748 2.88001,0 m -2.88001,-12.402 0,12.402 m 2.88001,-12.402 -2.88001,0 m 2.88001,-3.474 0,3.474 m 49.50013,-3.474 -49.50013,0"
         inkscape:connector-curvature="0" />
      <path
         id="path5866"
         style="fill:none;stroke:#ff0000;stroke-width:1.00000131"
         d="m 123.74628,946.41896 0,-3.474 m 2.88001,3.474 -2.88001,0 m 2.88001,12.402 0,-12.402 m -2.88001,12.402 2.88001,0 m -2.88001,17.748 0,-17.748 m 2.88001,17.748 -2.88001,0 m 2.88001,12.402 0,-12.402 m -2.88001,12.402 2.88001,0 m -2.88001,3.474 0,-3.474 m -49.50013,3.474 49.50013,0 m -49.50013,-3.474 0,3.474 m -2.880008,-3.474 2.880008,0 m -2.880008,-12.402 0,12.402 m 2.880008,-12.402 -2.880008,0 m 2.880008,-17.748 0,17.748 m -2.880008,-17.748 2.880008,0 m -2.880008,-12.402 0,12.402 m 2.880008,-12.402 -2.880008,0 m 2.880008,-3.474 0,3.474 m 49.50013,-3.474 -49.50013,0"
         inkscape:connector-curvature="0" />
      <path
         id="path5868"
         style="fill:none;stroke:#ff0000;stroke-width:1.00000131"
         d="m 258.74665,917.25333 0,-3.474 m 2.88,3.474 -2.88,0 m 2.88,12.402 0,-12.402 m -2.88,12.402 2.88,0 m -2.88,17.748 0,-17.748 m 2.88,17.748 -2.88,0 m 2.88,12.402 0,-12.402 m -2.88,12.402 2.88,0 m -2.88,3.474 0,-3.474 m -49.50014,3.474 49.50014,0 m -49.50014,-3.474 0,3.474 m -2.88001,-3.474 2.88001,0 m -2.88001,-12.402 0,12.402 m 2.88001,-12.402 -2.88001,0 m 2.88001,-17.748 0,17.748 m -2.88001,-17.748 2.88001,0 m -2.88001,-12.402 0,12.402 m 2.88001,-12.402 -2.88001,0 m 2.88001,-3.474 0,3.474 m 49.50014,-3.474 -49.50014,0"
         inkscape:connector-curvature="0" />
      <path
         id="path5870"
         style="fill:none;stroke:#ff0000;stroke-width:1.00000131"
         d="m 326.24683,934.96987 0,-3.474 m 2.88001,3.474 -2.88001,0 m 2.88001,12.402 0,-12.402 m -2.88001,12.402 2.88001,0 m -2.88001,17.748 0,-17.748 m 2.88001,17.748 -2.88001,0 m 2.88001,12.402 0,-12.402 m -2.88001,12.402 2.88001,0 m -2.88001,3.474 0,-3.474 m -49.50014,3.474 49.50014,0 m -49.50014,-3.474 0,3.474 m -2.88,-3.474 2.88,0 m -2.88,-12.402 0,12.402 m 2.88,-12.402 -2.88,0 m 2.88,-17.748 0,17.748 m -2.88,-17.748 2.88,0 m -2.88,-12.402 0,12.402 m 2.88,-12.402 -2.88,0 m 2.88,-3.474 0,3.474 m 49.50014,-3.474 -49.50014,0"
         inkscape:connector-curvature="0" />
      <path
         id="path5872"
         style="fill:none;stroke:#ff0000;stroke-width:1.00000131"
         d="m 191.24646,732.46987 0,-3.474 m 2.88001,3.474 -2.88001,0 m 2.88001,12.402 0,-12.402 m -2.88001,12.402 2.88001,0 m -2.88001,17.748 0,-17.748 m 2.88001,17.748 -2.88001,0 m 2.88001,12.402 0,-12.402 m -2.88001,12.402 2.88001,0 m -2.88001,3.474 0,-3.474 m -49.50013,3.474 49.50013,0 m -49.50013,-3.474 0,3.474 m -2.88001,-3.474 2.88001,0 m -2.88001,-12.402 0,12.402 m 2.88001,-12.402 -2.88001,0 m 2.88001,-17.748 0,17.748 m -2.88001,-17.748 2.88001,0 m -2.88001,-12.402 0,12.402 m 2.88001,-12.402 -2.88001,0 m 2.88001,-3.474 0,3.474 m 49.50013,-3.474 -49.50013,0"
         inkscape:connector-curvature="0" />
      <path
         d="m 394.48378,952.6864 0,-3.474 m 2.88001,3.474 -2.88001,0 m 2.88001,12.402 0,-12.402 m -2.88001,12.402 2.88001,0 m -2.88001,17.748 0,-17.748 m 2.88001,17.748 -2.88001,0 m 2.88001,12.402 0,-12.402 m -2.88001,12.402 2.88001,0 m -2.88001,3.474 0,-3.474 m -49.50013,3.474 49.50013,0 m -49.50013,-3.474 0,3.474 m -2.88001,-3.474 2.88001,0 m -2.88001,-12.402 0,12.402 m 2.88001,-12.402 -2.88001,0 m 2.88001,-17.748 0,17.748 m -2.88001,-17.748 2.88001,0 m -2.88001,-12.402 0,12.402 m 2.88001,-12.402 -2.88001,0 m 2.88001,-3.474 0,3.474 m 49.50013,-3.474 -49.50013,0"
         style="fill:none;stroke:#ff0000;stroke-width:1.00000131"
         id="path5874"
         inkscape:connector-curvature="0" />
    </g>
    <path
       sodipodi:nodetypes="sssssssss"
       inkscape:connector-curvature="0"
       id="path5876"
       d="m 60.452094,645.49182 800.578346,0 c 13.51828,0 23.08336,20.68759 24.80315,46.25518 l 17.10642,254.31572 c 1.71979,25.56759 -322.48578,87.97258 -336.00406,87.97258 l -212.59842,0 c -13.51828,0 -337.723816,-62.40497 -336.004027,-87.97258 L 35.439889,691.747 c 1.719788,-25.5676 11.493925,-46.25518 25.012205,-46.25518 z"
       style="fill:none;stroke:#ff0000;stroke-width:1.22030044;stroke-miterlimit:4;stroke-opacity:1" />
    <path
       transform="matrix(0.38063606,0,0,0.38063606,335.32633,239.57427)"
       d="m 219.20309,1105.1703 c 0,7.8105 -6.33165,14.1421 -14.14213,14.1421 -7.81049,0 -14.14214,-6.3316 -14.14214,-14.1421 0,-7.8105 6.33165,-14.1421 14.14214,-14.1421 7.81048,0 14.14213,6.3316 14.14213,14.1421 z"
       sodipodi:ry="14.142136"
       sodipodi:rx="14.142136"
       sodipodi:cy="1105.1703"
       sodipodi:cx="205.06096"
       id="path5878"
       style="fill:none;stroke:#ff0000;stroke-width:2.71440148;stroke-miterlimit:4;stroke-opacity:1;stroke-dasharray:none"
       sodipodi:type="arc" />
    <path
       sodipodi:type="arc"
       style="fill:none;stroke:#ff0000;stroke-width:2.71440148;stroke-miterlimit:4;stroke-opacity:1;stroke-dasharray:none"
       id="path5880"
       sodipodi:cx="205.06096"
       sodipodi:cy="1105.1703"
       sodipodi:rx="14.142136"
       sodipodi:ry="14.142136"
       d="m 219.20309,1105.1703 c 0,7.8105 -6.33165,14.1421 -14.14213,14.1421 -7.81049,0 -14.14214,-6.3316 -14.14214,-14.1421 0,-7.8105 6.33165,-14.1421 14.14214,-14.1421 7.81048,0 14.14213,6.3316 14.14213,14.1421 z"
       transform="matrix(0.38063606,0,0,0.38063606,-19.004383,246.66088)" />
    <path
       sodipodi:type="arc"
       style="fill:none;stroke:#ff0000;stroke-width:2.71440148;stroke-miterlimit:4;stroke-opacity:1;stroke-dasharray:none"
       id="path5882"
       sodipodi:cx="205.06096"
       sodipodi:cy="1105.1703"
       sodipodi:rx="14.142136"
       sodipodi:ry="14.142136"
       d="m 219.20309,1105.1703 c 0,7.8105 -6.33165,14.1421 -14.14213,14.1421 -7.81049,0 -14.14214,-6.3316 -14.14214,-14.1421 0,-7.8105 6.33165,-14.1421 14.14214,-14.1421 7.81048,0 14.14213,6.3316 14.14213,14.1421 z"
       transform="matrix(0.38063606,0,0,0.38063606,430.99562,239.57427)" />
    <path
       transform="matrix(0.38063606,0,0,0.38063606,636.50743,569.10175)"
       d="m 219.20309,1105.1703 c 0,7.8105 -6.33165,14.1421 -14.14213,14.1421 -7.81049,0 -14.14214,-6.3316 -14.14214,-14.1421 0,-7.8105 6.33165,-14.1421 14.14214,-14.1421 7.81048,0 14.14213,6.3316 14.14213,14.1421 z"
       sodipodi:ry="14.142136"
       sodipodi:rx="14.142136"
       sodipodi:cy="1105.1703"
       sodipodi:cx="205.06096"
       id="path5884"
       style="fill:none;stroke:#ff0000;stroke-width:2.71440148;stroke-miterlimit:4;stroke-opacity:1;stroke-dasharray:none"
       sodipodi:type="arc" />
    <path
       sodipodi:type="arc"
       style="fill:none;stroke:#ff0000;stroke-width:2.71440148;stroke-miterlimit:4;stroke-opacity:1;stroke-dasharray:none"
       id="path5886"
       sodipodi:cx="205.06096"
       sodipodi:cy="1105.1703"
       sodipodi:rx="14.142136"
       sodipodi:ry="14.142136"
       d="m 219.20309,1105.1703 c 0,7.8105 -6.33165,14.1421 -14.14213,14.1421 -7.81049,0 -14.14214,-6.3316 -14.14214,-14.1421 0,-7.8105 6.33165,-14.1421 14.14214,-14.1421 7.81048,0 14.14213,6.3316 14.14213,14.1421 z"
       transform="matrix(0.40309815,0,0,0.3796237,781.05221,247.76554)" />
    <path
       transform="matrix(0.38063606,0,0,0.38063606,140.44444,568.90332)"
       d="m 219.20309,1105.1703 c 0,7.8105 -6.33165,14.1421 -14.14213,14.1421 -7.81049,0 -14.14214,-6.3316 -14.14214,-14.1421 0,-7.8105 6.33165,-14.1421 14.14214,-14.1421 7.81048,0 14.14213,6.3316 14.14213,14.1421 z"
       sodipodi:ry="14.142136"
       sodipodi:rx="14.142136"
       sodipodi:cy="1105.1703"
       sodipodi:cx="205.06096"
       id="path5888"
       style="fill:none;stroke:#ff0000;stroke-width:2.71440148;stroke-miterlimit:4;stroke-opacity:1;stroke-dasharray:none"
       sodipodi:type="arc" />
    <g
       id="g5890"
       transform="matrix(-0.98480775,0.17364818,0.17364818,0.98480775,768.79497,-54.076345)">
      <path
         inkscape:connector-curvature="0"
         d="m 393.74701,754.32463 0,-3.474 m 2.88001,3.474 -2.88001,0 m 2.88001,12.402 0,-12.402 m -2.88001,12.402 2.88001,0 m -2.88001,17.748 0,-17.748 m 2.88001,17.748 -2.88001,0 m 2.88001,12.402 0,-12.402 m -2.88001,12.402 2.88001,0 m -2.88001,3.474 0,-3.474 m -49.50013,3.474 49.50013,0 m -49.50013,-3.474 0,3.474 m -2.88001,-3.474 2.88001,0 m -2.88001,-12.402 0,12.402 m 2.88001,-12.402 -2.88001,0 m 2.88001,-17.748 0,17.748 m -2.88001,-17.748 2.88001,0 m -2.88001,-12.402 0,12.402 m 2.88001,-12.402 -2.88001,0 m 2.88001,-3.474 0,3.474 m 49.50013,-3.474 -49.50013,0"
         style="fill:none;stroke:#ff0000;stroke-width:1.00000131"
         id="path5892" />
      <path
         inkscape:connector-curvature="0"
         d="m 191.24646,934.96987 0,-3.474 m 2.88001,3.474 -2.88001,0 m 2.88001,12.402 0,-12.402 m -2.88001,12.402 2.88001,0 m -2.88001,17.748 0,-17.748 m 2.88001,17.748 -2.88001,0 m 2.88001,12.402 0,-12.402 m -2.88001,12.402 2.88001,0 m -2.88001,3.474 0,-3.474 m -49.50013,3.474 49.50013,0 m -49.50013,-3.474 0,3.474 m -2.88001,-3.474 2.88001,0 m -2.88001,-12.402 0,12.402 m 2.88001,-12.402 -2.88001,0 m 2.88001,-17.748 0,17.748 m -2.88001,-17.748 2.88001,0 m -2.88001,-12.402 0,12.402 m 2.88001,-12.402 -2.88001,0 m 2.88001,-3.474 0,3.474 m 49.50013,-3.474 -49.50013,0"
         style="fill:none;stroke:#ff0000;stroke-width:1.00000131"
         id="path5894" />
      <path
         inkscape:connector-curvature="0"
         d="m 123.74628,743.91896 0,-3.474 m 2.88001,3.474 -2.88001,0 m 2.88001,12.402 0,-12.402 m -2.88001,12.402 2.88001,0 m -2.88001,17.748 0,-17.748 m 2.88001,17.748 -2.88001,0 m 2.88001,12.402 0,-12.402 m -2.88001,12.402 2.88001,0 m -2.88001,3.474 0,-3.474 m -49.50013,3.474 49.50013,0 m -49.50013,-3.474 0,3.474 m -2.880008,-3.474 2.880008,0 m -2.880008,-12.402 0,12.402 m 2.880008,-12.402 -2.880008,0 m 2.880008,-17.748 0,17.748 m -2.880008,-17.748 2.880008,0 m -2.880008,-12.402 0,12.402 m 2.880008,-12.402 -2.880008,0 m 2.880008,-3.474 0,3.474 m 49.50013,-3.474 -49.50013,0"
         style="fill:none;stroke:#ff0000;stroke-width:1.00000131"
         id="path5896" />
      <path
         inkscape:connector-curvature="0"
         d="m 258.74665,714.75333 0,-3.474 m 2.88,3.474 -2.88,0 m 2.88,12.402 0,-12.402 m -2.88,12.402 2.88,0 m -2.88,17.748 0,-17.748 m 2.88,17.748 -2.88,0 m 2.88,12.402 0,-12.402 m -2.88,12.402 2.88,0 m -2.88,3.474 0,-3.474 m -49.50014,3.474 49.50014,0 m -49.50014,-3.474 0,3.474 m -2.88001,-3.474 2.88001,0 m -2.88001,-12.402 0,12.402 m 2.88001,-12.402 -2.88001,0 m 2.88001,-17.748 0,17.748 m -2.88001,-17.748 2.88001,0 m -2.88001,-12.402 0,12.402 m 2.88001,-12.402 -2.88001,0 m 2.88001,-3.474 0,3.474 m 49.50014,-3.474 -49.50014,0"
         style="fill:none;stroke:#ff0000;stroke-width:1.00000131"
         id="path5898" />
      <path
         inkscape:connector-curvature="0"
         d="m 326.24683,732.46987 0,-3.474 m 2.88001,3.474 -2.88001,0 m 2.88001,12.402 0,-12.402 m -2.88001,12.402 2.88001,0 m -2.88001,17.748 0,-17.748 m 2.88001,17.748 -2.88001,0 m 2.88001,12.402 0,-12.402 m -2.88001,12.402 2.88001,0 m -2.88001,3.474 0,-3.474 m -49.50014,3.474 49.50014,0 m -49.50014,-3.474 0,3.474 m -2.88,-3.474 2.88,0 m -2.88,-12.402 0,12.402 m 2.88,-12.402 -2.88,0 m 2.88,-17.748 0,17.748 m -2.88,-17.748 2.88,0 m -2.88,-12.402 0,12.402 m 2.88,-12.402 -2.88,0 m 2.88,-3.474 0,3.474 m 49.50014,-3.474 -49.50014,0"
         style="fill:none;stroke:#ff0000;stroke-width:1.00000131"
         id="path5900" />
      <path
         inkscape:connector-curvature="0"
         d="m 123.74628,811.41896 0,-3.474 m 2.88001,3.474 -2.88001,0 m 2.88001,12.402 0,-12.402 m -2.88001,12.402 2.88001,0 m -2.88001,17.748 0,-17.748 m 2.88001,17.748 -2.88001,0 m 2.88001,12.402 0,-12.402 m -2.88001,12.402 2.88001,0 m -2.88001,3.474 0,-3.474 m -49.50013,3.474 49.50013,0 m -49.50013,-3.474 0,3.474 m -2.880008,-3.474 2.880008,0 m -2.880008,-12.402 0,12.402 m 2.880008,-12.402 -2.880008,0 m 2.880008,-17.748 0,17.748 m -2.880008,-17.748 2.880008,0 m -2.880008,-12.402 0,12.402 m 2.880008,-12.402 -2.880008,0 m 2.880008,-3.474 0,3.474 m 49.50013,-3.474 -49.50013,0"
         style="fill:none;stroke:#ff0000;stroke-width:1.00000131"
         id="path5902" />
      <path
         inkscape:connector-curvature="0"
         d="m 191.24646,799.96987 0,-3.474 m 2.88001,3.474 -2.88001,0 m 2.88001,12.402 0,-12.402 m -2.88001,12.402 2.88001,0 m -2.88001,17.748 0,-17.748 m 2.88001,17.748 -2.88001,0 m 2.88001,12.402 0,-12.402 m -2.88001,12.402 2.88001,0 m -2.88001,3.474 0,-3.474 m -49.50013,3.474 49.50013,0 m -49.50013,-3.474 0,3.474 m -2.88001,-3.474 2.88001,0 m -2.88001,-12.402 0,12.402 m 2.88001,-12.402 -2.88001,0 m 2.88001,-17.748 0,17.748 m -2.88001,-17.748 2.88001,0 m -2.88001,-12.402 0,12.402 m 2.88001,-12.402 -2.88001,0 m 2.88001,-3.474 0,3.474 m 49.50013,-3.474 -49.50013,0"
         style="fill:none;stroke:#ff0000;stroke-width:1.00000131"
         id="path5904" />
      <path
         inkscape:connector-curvature="0"
         d="m 258.74665,782.25333 0,-3.474 m 2.88,3.474 -2.88,0 m 2.88,12.402 0,-12.402 m -2.88,12.402 2.88,0 m -2.88,17.748 0,-17.748 m 2.88,17.748 -2.88,0 m 2.88,12.402 0,-12.402 m -2.88,12.402 2.88,0 m -2.88,3.474 0,-3.474 m -49.50014,3.474 49.50014,0 m -49.50014,-3.474 0,3.474 m -2.88001,-3.474 2.88001,0 m -2.88001,-12.402 0,12.402 m 2.88001,-12.402 -2.88001,0 m 2.88001,-17.748 0,17.748 m -2.88001,-17.748 2.88001,0 m -2.88001,-12.402 0,12.402 m 2.88001,-12.402 -2.88001,0 m 2.88001,-3.474 0,3.474 m 49.50014,-3.474 -49.50014,0"
         style="fill:none;stroke:#ff0000;stroke-width:1.00000131"
         id="path5906" />
      <path
         inkscape:connector-curvature="0"
         d="m 326.24683,799.96987 0,-3.474 m 2.88001,3.474 -2.88001,0 m 2.88001,12.402 0,-12.402 m -2.88001,12.402 2.88001,0 m -2.88001,17.748 0,-17.748 m 2.88001,17.748 -2.88001,0 m 2.88001,12.402 0,-12.402 m -2.88001,12.402 2.88001,0 m -2.88001,3.474 0,-3.474 m -49.50014,3.474 49.50014,0 m -49.50014,-3.474 0,3.474 m -2.88,-3.474 2.88,0 m -2.88,-12.402 0,12.402 m 2.88,-12.402 -2.88,0 m 2.88,-17.748 0,17.748 m -2.88,-17.748 2.88,0 m -2.88,-12.402 0,12.402 m 2.88,-12.402 -2.88,0 m 2.88,-3.474 0,3.474 m 49.50014,-3.474 -49.50014,0"
         style="fill:none;stroke:#ff0000;stroke-width:1.00000131"
         id="path5908" />
      <path
         inkscape:connector-curvature="0"
         d="m 393.74701,821.82463 0,-3.474 m 2.88001,3.474 -2.88001,0 m 2.88001,12.402 0,-12.402 m -2.88001,12.402 2.88001,0 m -2.88001,17.748 0,-17.748 m 2.88001,17.748 -2.88001,0 m 2.88001,12.402 0,-12.402 m -2.88001,12.402 2.88001,0 m -2.88001,3.474 0,-3.474 m -49.50013,3.474 49.50013,0 m -49.50013,-3.474 0,3.474 m -2.88001,-3.474 2.88001,0 m -2.88001,-12.402 0,12.402 m 2.88001,-12.402 -2.88001,0 m 2.88001,-17.748 0,17.748 m -2.88001,-17.748 2.88001,0 m -2.88001,-12.402 0,12.402 m 2.88001,-12.402 -2.88001,0 m 2.88001,-3.474 0,3.474 m 49.50013,-3.474 -49.50013,0"
         style="fill:none;stroke:#ff0000;stroke-width:1.00000131"
         id="path5910" />
      <path
         inkscape:connector-curvature="0"
         d="m 123.74628,878.91896 0,-3.474 m 2.88001,3.474 -2.88001,0 m 2.88001,12.402 0,-12.402 m -2.88001,12.402 2.88001,0 m -2.88001,17.748 0,-17.748 m 2.88001,17.748 -2.88001,0 m 2.88001,12.402 0,-12.402 m -2.88001,12.402 2.88001,0 m -2.88001,3.474 0,-3.474 m -49.50013,3.474 49.50013,0 m -49.50013,-3.474 0,3.474 m -2.880008,-3.474 2.880008,0 m -2.880008,-12.402 0,12.402 m 2.880008,-12.402 -2.880008,0 m 2.880008,-17.748 0,17.748 m -2.880008,-17.748 2.880008,0 m -2.880008,-12.402 0,12.402 m 2.880008,-12.402 -2.880008,0 m 2.880008,-3.474 0,3.474 m 49.50013,-3.474 -49.50013,0"
         style="fill:none;stroke:#ff0000;stroke-width:1.00000131"
         id="path5912" />
      <path
         inkscape:connector-curvature="0"
         d="m 191.24646,867.46987 0,-3.474 m 2.88001,3.474 -2.88001,0 m 2.88001,12.402 0,-12.402 m -2.88001,12.402 2.88001,0 m -2.88001,17.748 0,-17.748 m 2.88001,17.748 -2.88001,0 m 2.88001,12.402 0,-12.402 m -2.88001,12.402 2.88001,0 m -2.88001,3.474 0,-3.474 m -49.50013,3.474 49.50013,0 m -49.50013,-3.474 0,3.474 m -2.88001,-3.474 2.88001,0 m -2.88001,-12.402 0,12.402 m 2.88001,-12.402 -2.88001,0 m 2.88001,-17.748 0,17.748 m -2.88001,-17.748 2.88001,0 m -2.88001,-12.402 0,12.402 m 2.88001,-12.402 -2.88001,0 m 2.88001,-3.474 0,3.474 m 49.50013,-3.474 -49.50013,0"
         style="fill:none;stroke:#ff0000;stroke-width:1.00000131"
         id="path5914" />
      <path
         inkscape:connector-curvature="0"
         d="m 258.74665,849.75333 0,-3.474 m 2.88,3.474 -2.88,0 m 2.88,12.402 0,-12.402 m -2.88,12.402 2.88,0 m -2.88,17.748 0,-17.748 m 2.88,17.748 -2.88,0 m 2.88,12.402 0,-12.402 m -2.88,12.402 2.88,0 m -2.88,3.474 0,-3.474 m -49.50014,3.474 49.50014,0 m -49.50014,-3.474 0,3.474 m -2.88001,-3.474 2.88001,0 m -2.88001,-12.402 0,12.402 m 2.88001,-12.402 -2.88001,0 m 2.88001,-17.748 0,17.748 m -2.88001,-17.748 2.88001,0 m -2.88001,-12.402 0,12.402 m 2.88001,-12.402 -2.88001,0 m 2.88001,-3.474 0,3.474 m 49.50014,-3.474 -49.50014,0"
         style="fill:none;stroke:#ff0000;stroke-width:1.00000131"
         id="path5916" />
      <path
         inkscape:connector-curvature="0"
         d="m 326.24683,867.46987 0,-3.474 m 2.88001,3.474 -2.88001,0 m 2.88001,12.402 0,-12.402 m -2.88001,12.402 2.88001,0 m -2.88001,17.748 0,-17.748 m 2.88001,17.748 -2.88001,0 m 2.88001,12.402 0,-12.402 m -2.88001,12.402 2.88001,0 m -2.88001,3.474 0,-3.474 m -49.50014,3.474 49.50014,0 m -49.50014,-3.474 0,3.474 m -2.88,-3.474 2.88,0 m -2.88,-12.402 0,12.402 m 2.88,-12.402 -2.88,0 m 2.88,-17.748 0,17.748 m -2.88,-17.748 2.88,0 m -2.88,-12.402 0,12.402 m 2.88,-12.402 -2.88,0 m 2.88,-3.474 0,3.474 m 49.50014,-3.474 -49.50014,0"
         style="fill:none;stroke:#ff0000;stroke-width:1.00000131"
         id="path5918" />
      <path
         inkscape:connector-curvature="0"
         d="m 393.74701,889.32463 0,-3.474 m 2.88001,3.474 -2.88001,0 m 2.88001,12.402 0,-12.402 m -2.88001,12.402 2.88001,0 m -2.88001,17.748 0,-17.748 m 2.88001,17.748 -2.88001,0 m 2.88001,12.402 0,-12.402 m -2.88001,12.402 2.88001,0 m -2.88001,3.474 0,-3.474 m -49.50013,3.474 49.50013,0 m -49.50013,-3.474 0,3.474 m -2.88001,-3.474 2.88001,0 m -2.88001,-12.402 0,12.402 m 2.88001,-12.402 -2.88001,0 m 2.88001,-17.748 0,17.748 m -2.88001,-17.748 2.88001,0 m -2.88001,-12.402 0,12.402 m 2.88001,-12.402 -2.88001,0 m 2.88001,-3.474 0,3.474 m 49.50013,-3.474 -49.50013,0"
         style="fill:none;stroke:#ff0000;stroke-width:1.00000131"
         id="path5920" />
      <path
         inkscape:connector-curvature="0"
         d="m 123.74628,946.41896 0,-3.474 m 2.88001,3.474 -2.88001,0 m 2.88001,12.402 0,-12.402 m -2.88001,12.402 2.88001,0 m -2.88001,17.748 0,-17.748 m 2.88001,17.748 -2.88001,0 m 2.88001,12.402 0,-12.402 m -2.88001,12.402 2.88001,0 m -2.88001,3.474 0,-3.474 m -49.50013,3.474 49.50013,0 m -49.50013,-3.474 0,3.474 m -2.880008,-3.474 2.880008,0 m -2.880008,-12.402 0,12.402 m 2.880008,-12.402 -2.880008,0 m 2.880008,-17.748 0,17.748 m -2.880008,-17.748 2.880008,0 m -2.880008,-12.402 0,12.402 m 2.880008,-12.402 -2.880008,0 m 2.880008,-3.474 0,3.474 m 49.50013,-3.474 -49.50013,0"
         style="fill:none;stroke:#ff0000;stroke-width:1.00000131"
         id="path5922" />
      <path
         inkscape:connector-curvature="0"
         d="m 258.74665,917.25333 0,-3.474 m 2.88,3.474 -2.88,0 m 2.88,12.402 0,-12.402 m -2.88,12.402 2.88,0 m -2.88,17.748 0,-17.748 m 2.88,17.748 -2.88,0 m 2.88,12.402 0,-12.402 m -2.88,12.402 2.88,0 m -2.88,3.474 0,-3.474 m -49.50014,3.474 49.50014,0 m -49.50014,-3.474 0,3.474 m -2.88001,-3.474 2.88001,0 m -2.88001,-12.402 0,12.402 m 2.88001,-12.402 -2.88001,0 m 2.88001,-17.748 0,17.748 m -2.88001,-17.748 2.88001,0 m -2.88001,-12.402 0,12.402 m 2.88001,-12.402 -2.88001,0 m 2.88001,-3.474 0,3.474 m 49.50014,-3.474 -49.50014,0"
         style="fill:none;stroke:#ff0000;stroke-width:1.00000131"
         id="path5924" />
      <path
         inkscape:connector-curvature="0"
         d="m 326.24683,934.96987 0,-3.474 m 2.88001,3.474 -2.88001,0 m 2.88001,12.402 0,-12.402 m -2.88001,12.402 2.88001,0 m -2.88001,17.748 0,-17.748 m 2.88001,17.748 -2.88001,0 m 2.88001,12.402 0,-12.402 m -2.88001,12.402 2.88001,0 m -2.88001,3.474 0,-3.474 m -49.50014,3.474 49.50014,0 m -49.50014,-3.474 0,3.474 m -2.88,-3.474 2.88,0 m -2.88,-12.402 0,12.402 m 2.88,-12.402 -2.88,0 m 2.88,-17.748 0,17.748 m -2.88,-17.748 2.88,0 m -2.88,-12.402 0,12.402 m 2.88,-12.402 -2.88,0 m 2.88,-3.474 0,3.474 m 49.50014,-3.474 -49.50014,0"
         style="fill:none;stroke:#ff0000;stroke-width:1.00000131"
         id="path5926" />
      <path
         inkscape:connector-curvature="0"
         d="m 191.24646,732.46987 0,-3.474 m 2.88001,3.474 -2.88001,0 m 2.88001,12.402 0,-12.402 m -2.88001,12.402 2.88001,0 m -2.88001,17.748 0,-17.748 m 2.88001,17.748 -2.88001,0 m 2.88001,12.402 0,-12.402 m -2.88001,12.402 2.88001,0 m -2.88001,3.474 0,-3.474 m -49.50013,3.474 49.50013,0 m -49.50013,-3.474 0,3.474 m -2.88001,-3.474 2.88001,0 m -2.88001,-12.402 0,12.402 m 2.88001,-12.402 -2.88001,0 m 2.88001,-17.748 0,17.748 m -2.88001,-17.748 2.88001,0 m -2.88001,-12.402 0,12.402 m 2.88001,-12.402 -2.88001,0 m 2.88001,-3.474 0,3.474 m 49.50013,-3.474 -49.50013,0"
         style="fill:none;stroke:#ff0000;stroke-width:1.00000131"
         id="path5928" />
      <path
         inkscape:connector-curvature="0"
         id="path5930"
         style="fill:none;stroke:#ff0000;stroke-width:1.00000131"
         d="m 394.48378,952.6864 0,-3.474 m 2.88001,3.474 -2.88001,0 m 2.88001,12.402 0,-12.402 m -2.88001,12.402 2.88001,0 m -2.88001,17.748 0,-17.748 m 2.88001,17.748 -2.88001,0 m 2.88001,12.402 0,-12.402 m -2.88001,12.402 2.88001,0 m -2.88001,3.474 0,-3.474 m -49.50013,3.474 49.50013,0 m -49.50013,-3.474 0,3.474 m -2.88001,-3.474 2.88001,0 m -2.88001,-12.402 0,12.402 m 2.88001,-12.402 -2.88001,0 m 2.88001,-17.748 0,17.748 m -2.88001,-17.748 2.88001,0 m -2.88001,-12.402 0,12.402 m 2.88001,-12.402 -2.88001,0 m 2.88001,-3.474 0,3.474 m 49.50013,-3.474 -49.50013,0" />
    </g>
  </g>
  <g
     style="display:inline"
     transform="translate(0,205.51205)"
     id="g5730"
     inkscape:groupmode="layer"
     inkscape:label="Spacer">
    <path
       sodipodi:nodetypes="sssssssss"
       inkscape:connector-curvature="0"
       id="path5774"
       d="m 60.452094,238.01145 800.578346,0 c 13.51828,0 23.08336,20.68759 24.80315,46.25518 l 17.10642,254.31572 c 1.71979,25.56759 -322.48578,87.97258 -336.00406,87.97258 l -212.59842,0 c -13.51828,0 -337.723816,-62.40497 -336.004027,-87.97258 L 35.439889,284.26663 c 1.719788,-25.5676 11.493925,-46.25518 25.012205,-46.25518 z"
       style="fill:none;stroke:#ff0000;stroke-width:1.22030044;stroke-miterlimit:4;stroke-opacity:1" />
    <path
       transform="matrix(0.38063606,0,0,0.38063606,335.32633,-167.9061)"
       d="m 219.20309,1105.1703 c 0,7.8105 -6.33165,14.1421 -14.14213,14.1421 -7.81049,0 -14.14214,-6.3316 -14.14214,-14.1421 0,-7.8105 6.33165,-14.1421 14.14214,-14.1421 7.81048,0 14.14213,6.3316 14.14213,14.1421 z"
       sodipodi:ry="14.142136"
       sodipodi:rx="14.142136"
       sodipodi:cy="1105.1703"
       sodipodi:cx="205.06096"
       id="path5776"
       style="fill:none;stroke:#ff0000;stroke-width:2.71440148;stroke-miterlimit:4;stroke-opacity:1;stroke-dasharray:none"
       sodipodi:type="arc" />
    <path
       sodipodi:type="arc"
       style="fill:none;stroke:#ff0000;stroke-width:2.71440148;stroke-miterlimit:4;stroke-opacity:1;stroke-dasharray:none"
       id="path5778"
       sodipodi:cx="205.06096"
       sodipodi:cy="1105.1703"
       sodipodi:rx="14.142136"
       sodipodi:ry="14.142136"
       d="m 219.20309,1105.1703 c 0,7.8105 -6.33165,14.1421 -14.14213,14.1421 -7.81049,0 -14.14214,-6.3316 -14.14214,-14.1421 0,-7.8105 6.33165,-14.1421 14.14214,-14.1421 7.81048,0 14.14213,6.3316 14.14213,14.1421 z"
       transform="matrix(0.38063606,0,0,0.38063606,-19.004383,-160.81949)" />
    <path
       sodipodi:type="arc"
       style="fill:none;stroke:#ff0000;stroke-width:2.71440148;stroke-miterlimit:4;stroke-opacity:1;stroke-dasharray:none"
       id="path5780"
       sodipodi:cx="205.06096"
       sodipodi:cy="1105.1703"
       sodipodi:rx="14.142136"
       sodipodi:ry="14.142136"
       d="m 219.20309,1105.1703 c 0,7.8105 -6.33165,14.1421 -14.14213,14.1421 -7.81049,0 -14.14214,-6.3316 -14.14214,-14.1421 0,-7.8105 6.33165,-14.1421 14.14214,-14.1421 7.81048,0 14.14213,6.3316 14.14213,14.1421 z"
       transform="matrix(0.38063606,0,0,0.38063606,430.99562,-167.9061)" />
    <path
       transform="matrix(0.38063606,0,0,0.38063606,636.50743,161.62138)"
       d="m 219.20309,1105.1703 c 0,7.8105 -6.33165,14.1421 -14.14213,14.1421 -7.81049,0 -14.14214,-6.3316 -14.14214,-14.1421 0,-7.8105 6.33165,-14.1421 14.14214,-14.1421 7.81048,0 14.14213,6.3316 14.14213,14.1421 z"
       sodipodi:ry="14.142136"
       sodipodi:rx="14.142136"
       sodipodi:cy="1105.1703"
       sodipodi:cx="205.06096"
       id="path5782"
       style="fill:none;stroke:#ff0000;stroke-width:2.71440148;stroke-miterlimit:4;stroke-opacity:1;stroke-dasharray:none"
       sodipodi:type="arc" />
    <path
       sodipodi:type="arc"
       style="fill:none;stroke:#ff0000;stroke-width:2.71440148;stroke-miterlimit:4;stroke-opacity:1;stroke-dasharray:none"
       id="path5784"
       sodipodi:cx="205.06096"
       sodipodi:cy="1105.1703"
       sodipodi:rx="14.142136"
       sodipodi:ry="14.142136"
       d="m 219.20309,1105.1703 c 0,7.8105 -6.33165,14.1421 -14.14213,14.1421 -7.81049,0 -14.14214,-6.3316 -14.14214,-14.1421 0,-7.8105 6.33165,-14.1421 14.14214,-14.1421 7.81048,0 14.14213,6.3316 14.14213,14.1421 z"
       transform="matrix(0.40309815,0,0,0.3796237,781.05221,-159.71483)" />
    <path
       transform="matrix(0.38063606,0,0,0.38063606,140.44444,161.42295)"
       d="m 219.20309,1105.1703 c 0,7.8105 -6.33165,14.1421 -14.14213,14.1421 -7.81049,0 -14.14214,-6.3316 -14.14214,-14.1421 0,-7.8105 6.33165,-14.1421 14.14214,-14.1421 7.81048,0 14.14213,6.3316 14.14213,14.1421 z"
       sodipodi:ry="14.142136"
       sodipodi:rx="14.142136"
       sodipodi:cy="1105.1703"
       sodipodi:cx="205.06096"
       id="path5786"
       style="fill:none;stroke:#ff0000;stroke-width:2.71440148;stroke-miterlimit:4;stroke-opacity:1;stroke-dasharray:none"
       sodipodi:type="arc" />
    <path
       style="fill:none;stroke:#ff0000;stroke-width:1.05983841;stroke-miterlimit:4;stroke-opacity:1"
       d="m 76.130373,272.65697 768.999087,0 c 12.43777,0 14.19685,16.98175 15.89416,37.92142 l 17.188,212.04778 c 1.69731,20.93969 -307.34112,70.87686 -319.7789,70.87686 l -195.60564,0 c -12.43777,0 -321.527989,-49.94164 -319.778859,-70.87686 L 60.764732,310.57839 c 1.749127,-20.9352 2.927864,-37.92142 15.365641,-37.92142 z"
       id="path5830"
       inkscape:connector-curvature="0"
       sodipodi:nodetypes="sssssssss" />
  </g>
  <g
     style="display:inline"
     transform="translate(0,205.51205)"
     id="g5628"
     inkscape:groupmode="layer"
     inkscape:label="Bottom">
    <path
       sodipodi:nodetypes="sssssssss"
       inkscape:connector-curvature="0"
       id="path5672"
       d="m 60.452094,-169.46886 800.578346,0 c 13.51828,0 23.08336,20.68759 24.80315,46.25518 l 17.10642,254.31572 c 1.71979,25.56759 -322.48578,87.97258 -336.00406,87.97258 l -212.59842,0 c -13.51828,0 -337.723816,-62.40497 -336.004027,-87.97258 l 17.106386,-254.31572 c 1.719788,-25.5676 11.493925,-46.25518 25.012205,-46.25518 z"
       style="fill:none;stroke:#ff0000;stroke-width:1.22030044;stroke-miterlimit:4;stroke-opacity:1" />
    <path
       transform="matrix(0.38063606,0,0,0.38063606,335.32633,-575.38641)"
       d="m 219.20309,1105.1703 c 0,7.8105 -6.33165,14.1421 -14.14213,14.1421 -7.81049,0 -14.14214,-6.3316 -14.14214,-14.1421 0,-7.8105 6.33165,-14.1421 14.14214,-14.1421 7.81048,0 14.14213,6.3316 14.14213,14.1421 z"
       sodipodi:ry="14.142136"
       sodipodi:rx="14.142136"
       sodipodi:cy="1105.1703"
       sodipodi:cx="205.06096"
       id="path5674"
       style="fill:none;stroke:#ff0000;stroke-width:2.71440148;stroke-miterlimit:4;stroke-opacity:1;stroke-dasharray:none"
       sodipodi:type="arc" />
    <path
       sodipodi:type="arc"
       style="fill:none;stroke:#ff0000;stroke-width:2.71440148;stroke-miterlimit:4;stroke-opacity:1;stroke-dasharray:none"
       id="path5676"
       sodipodi:cx="205.06096"
       sodipodi:cy="1105.1703"
       sodipodi:rx="14.142136"
       sodipodi:ry="14.142136"
       d="m 219.20309,1105.1703 c 0,7.8105 -6.33165,14.1421 -14.14213,14.1421 -7.81049,0 -14.14214,-6.3316 -14.14214,-14.1421 0,-7.8105 6.33165,-14.1421 14.14214,-14.1421 7.81048,0 14.14213,6.3316 14.14213,14.1421 z"
       transform="matrix(0.38063606,0,0,0.38063606,-19.004383,-568.2998)" />
    <path
       sodipodi:type="arc"
       style="fill:none;stroke:#ff0000;stroke-width:2.71440148;stroke-miterlimit:4;stroke-opacity:1;stroke-dasharray:none"
       id="path5678"
       sodipodi:cx="205.06096"
       sodipodi:cy="1105.1703"
       sodipodi:rx="14.142136"
       sodipodi:ry="14.142136"
       d="m 219.20309,1105.1703 c 0,7.8105 -6.33165,14.1421 -14.14213,14.1421 -7.81049,0 -14.14214,-6.3316 -14.14214,-14.1421 0,-7.8105 6.33165,-14.1421 14.14214,-14.1421 7.81048,0 14.14213,6.3316 14.14213,14.1421 z"
       transform="matrix(0.38063606,0,0,0.38063606,430.99562,-575.38641)" />
    <path
       transform="matrix(0.38063606,0,0,0.38063606,636.50743,-245.85893)"
       d="m 219.20309,1105.1703 c 0,7.8105 -6.33165,14.1421 -14.14213,14.1421 -7.81049,0 -14.14214,-6.3316 -14.14214,-14.1421 0,-7.8105 6.33165,-14.1421 14.14214,-14.1421 7.81048,0 14.14213,6.3316 14.14213,14.1421 z"
       sodipodi:ry="14.142136"
       sodipodi:rx="14.142136"
       sodipodi:cy="1105.1703"
       sodipodi:cx="205.06096"
       id="path5680"
       style="fill:none;stroke:#ff0000;stroke-width:2.71440148;stroke-miterlimit:4;stroke-opacity:1;stroke-dasharray:none"
       sodipodi:type="arc" />
    <path
       sodipodi:type="arc"
       style="fill:none;stroke:#ff0000;stroke-width:2.71440148;stroke-miterlimit:4;stroke-opacity:1;stroke-dasharray:none"
       id="path5682"
       sodipodi:cx="205.06096"
       sodipodi:cy="1105.1703"
       sodipodi:rx="14.142136"
       sodipodi:ry="14.142136"
       d="m 219.20309,1105.1703 c 0,7.8105 -6.33165,14.1421 -14.14213,14.1421 -7.81049,0 -14.14214,-6.3316 -14.14214,-14.1421 0,-7.8105 6.33165,-14.1421 14.14214,-14.1421 7.81048,0 14.14213,6.3316 14.14213,14.1421 z"
       transform="matrix(0.40309815,0,0,0.3796237,781.05221,-567.19514)" />
    <path
       transform="matrix(0.38063606,0,0,0.38063606,140.44444,-246.05736)"
       d="m 219.20309,1105.1703 c 0,7.8105 -6.33165,14.1421 -14.14213,14.1421 -7.81049,0 -14.14214,-6.3316 -14.14214,-14.1421 0,-7.8105 6.33165,-14.1421 14.14214,-14.1421 7.81048,0 14.14213,6.3316 14.14213,14.1421 z"
       sodipodi:ry="14.142136"
       sodipodi:rx="14.142136"
       sodipodi:cy="1105.1703"
       sodipodi:cx="205.06096"
       id="path5684"
       style="fill:none;stroke:#ff0000;stroke-width:2.71440148;stroke-miterlimit:4;stroke-opacity:1;stroke-dasharray:none"
       sodipodi:type="arc" />
  </g>
  <g
     inkscape:groupmode="layer"
     id="layer5"
     inkscape:label="Label"
     style="display:inline"
     transform="translate(0,-425.19682)">
    <text
       xml:space="preserve"
       style="font-size:18px;font-style:normal;font-variant:normal;font-weight:normal;font-stretch:normal;line-height:125%;letter-spacing:0px;word-spacing:0px;fill:#000000;fill-opacity:1;stroke:none;display:inline;font-family:Anonymous Pro for Powerline;-inkscape-font-specification:Anonymous Pro for Powerline"
       x="545.0788"
       y="450.97644"
       id="text5537"
       sodipodi:linespacing="125%"><tspan
         sodipodi:role="line"
         id="tspan5539"
         x="545.0788"
         y="450.97644">http://github.com/technomancy/atreus</tspan></text>
    <text
       xml:space="preserve"
       style="font-size:25px;font-style:normal;font-variant:normal;font-weight:normal;font-stretch:normal;line-height:125%;letter-spacing:0px;word-spacing:0px;fill:#000000;fill-opacity:1;stroke:none;display:inline;font-family:Anonymous Pro for Powerline;-inkscape-font-specification:Anonymous Pro for Powerline"
       x="21.819805"
       y="451.68359"
       id="text5533"
       sodipodi:linespacing="125%"><tspan
         sodipodi:role="line"
         id="tspan5535"
         x="21.819805"
         y="451.68359">Atreus Keyboard by Phil Hagelberg</tspan></text>
  </g>
</svg>
